<?xml version="1.0" encoding="utf-8"?>
<!-- Generator: Adobe Illustrator 24.0.0, SVG Export Plug-In . SVG Version: 6.00 Build 0)  -->
<svg version="1.1" id="Layer_1" xmlns="http://www.w3.org/2000/svg" xmlns:xlink="http://www.w3.org/1999/xlink" x="0px" y="0px"
	 viewBox="0 0 385 515" style="enable-background:new 0 0 385 515;" xml:space="preserve">
<style type="text/css">
	.st0{clip-path:url(#SVGID_3_);}
	.st1{clip-path:url(#SVGID_6_);}
	.st2{filter:url(#Adobe_OpacityMaskFilter);}
	.st3{clip-path:url(#SVGID_7_);}
	.st4{clip-path:url(#SVGID_11_);}
	.st5{clip-path:url(#SVGID_12_);fill:url(#SVGID_13_);}
	.st6{clip-path:url(#SVGID_7_);mask:url(#SVGID_8_);fill:url(#SVGID_14_);}
	.st7{fill:url(#SVGID_15_);}
	.st8{fill:#F9B000;}
	.st9{fill:#F9F8F7;}
	.st10{fill:#FFFFFF;}
	.st11{fill:#43840B;}
	.st12{fill:#3A6D09;}
	.st13{fill:#4A990D;}
	.st14{fill:#AA937E;}
	.st15{fill:#C9B097;}
	.st16{fill:#9F9AEE;}
	.st17{fill:#DB7D7B;}
	.st18{fill:#2A3756;}
	.st19{fill:#151C28;}
	.st20{opacity:0.1;fill:#FFFFFF;enable-background:new    ;}
	.st21{fill:#E2857E;}
	.st22{fill:#06090C;}
	.st23{fill:#FCF75A;}
	.st24{opacity:0.5;fill:#222A35;enable-background:new    ;}
</style>
<g>
	<g>
		<defs>
			<rect id="SVGID_2_" x="-2" width="388" height="516"/>
		</defs>
		<clipPath id="SVGID_3_">
			<use xlink:href="#SVGID_2_"  style="overflow:visible;"/>
		</clipPath>
		<g class="st0">
			<g>
				<g>
					<g>
						<defs>
							<polygon id="SVGID_4_" points="1,1 2,1 1,2 							"/>
						</defs>
						<defs>
							<polygon id="SVGID_5_" points="-1,-1 -2,-1 -1,-2 							"/>
						</defs>
						<clipPath id="SVGID_6_">
							<use xlink:href="#SVGID_4_"  style="overflow:visible;"/>
						</clipPath>
						<clipPath id="SVGID_7_" class="st1">
							<use xlink:href="#SVGID_5_"  style="overflow:visible;"/>
						</clipPath>
						<defs>
							<filter id="Adobe_OpacityMaskFilter" filterUnits="userSpaceOnUse" x="-135.1" y="145.9" width="258.5" height="253.5">
								<feColorMatrix  type="matrix" values="1 0 0 0 0  0 1 0 0 0  0 0 1 0 0  0 0 0 1 0"/>
							</filter>
						</defs>
						<mask maskUnits="userSpaceOnUse" x="-135.1" y="145.9" width="258.5" height="253.5" id="SVGID_8_">
							<g class="st2">
								<g>
									<defs>
										<polygon id="SVGID_9_" points="1,1 2,1 1,2 										"/>
									</defs>
									<defs>
										<polygon id="SVGID_10_" points="-1,-1 -2,-1 -1,-2 										"/>
									</defs>
									<clipPath id="SVGID_11_" class="st3">
										<use xlink:href="#SVGID_9_"  style="overflow:visible;"/>
									</clipPath>
									<clipPath id="SVGID_12_" class="st4">
										<use xlink:href="#SVGID_10_"  style="overflow:visible;"/>
									</clipPath>
									
										<linearGradient id="SVGID_13_" gradientUnits="userSpaceOnUse" x1="-4.5824" y1="125.4683" x2="-6.8669" y2="337.9122" gradientTransform="matrix(1 0 0 -1 0 516)">
										<stop  offset="0" style="stop-color:#000000"/>
										<stop  offset="1" style="stop-color:#666666"/>
									</linearGradient>
									<rect x="-135.1" y="145.9" class="st5" width="258.5" height="253.5"/>
								</g>
							</g>
						</mask>
						
							<linearGradient id="SVGID_14_" gradientUnits="userSpaceOnUse" x1="-4.5824" y1="125.4683" x2="-6.8669" y2="337.9122" gradientTransform="matrix(1 0 0 -1 0 516)">
							<stop  offset="0" style="stop-color:#000000"/>
							<stop  offset="1" style="stop-color:#666666"/>
						</linearGradient>
						<rect x="-135.1" y="145.9" class="st6" width="258.5" height="253.5"/>
					</g>
				</g>
				
					<linearGradient id="SVGID_15_" gradientUnits="userSpaceOnUse" x1="-4.5824" y1="125.4683" x2="-6.8669" y2="337.9122" gradientTransform="matrix(1 0 0 -1 0 516)">
					<stop  offset="0" style="stop-color:#FFFFFF"/>
					<stop  offset="1" style="stop-color:#FFFFFF"/>
				</linearGradient>
				<rect x="-135.1" y="145.9" class="st7" width="258.5" height="253.5"/>
				<g>
					<rect x="52.2" y="143.3" class="st8" width="10.1" height="256.2"/>
					<rect x="-70.8" y="278.3" class="st8" width="130.9" height="7.9"/>
				</g>
			</g>
			<g>
				<g>
					<g>
						<g>
							<polygon class="st9" points="261.6,334.1 247.8,334.1 249.8,324.2 259.6,324.2 							"/>
							<path class="st9" d="M247.8,332.9c-2,0-3.5-1.6-3.5-3.5c0-2,1.6-3.5,3.5-3.5c2,0,3.5,1.6,3.5,3.5
								C251.4,331.3,249.8,332.9,247.8,332.9z M247.8,327.5c-1,0-1.9,0.8-1.9,1.9c0,1,0.8,1.9,1.9,1.9c1,0,1.9-0.8,1.9-1.9
								S248.9,327.5,247.8,327.5z"/>
						</g>
						<g>
							<polygon class="st9" points="278.9,334.1 265.1,334.1 267.1,324.2 276.9,324.2 							"/>
							<path class="st9" d="M265.1,332.9c-2,0-3.5-1.6-3.5-3.5c0-2,1.6-3.5,3.5-3.5c2,0,3.5,1.6,3.5,3.5
								C268.7,331.3,267.1,332.9,265.1,332.9z M265.1,327.5c-1,0-1.9,0.8-1.9,1.9c0,1,0.8,1.9,1.9,1.9c1,0,1.9-0.8,1.9-1.9
								S266.2,327.5,265.1,327.5z"/>
						</g>
						<g>
							<polygon class="st10" points="278.1,328.5 264.6,325.8 268.4,316.5 278.1,318.4 							"/>
							<path class="st10" d="M264.8,324.7c-1.9-0.4-3.2-2.2-2.8-4.2c0.4-1.9,2.2-3.2,4.2-2.8c1.9,0.4,3.2,2.2,2.8,4.2
								C268.6,323.8,266.7,325,264.8,324.7z M265.9,319.3c-1-0.2-2,0.5-2.2,1.5s0.5,2,1.5,2.2s2-0.5,2.2-1.5
								C267.5,320.5,266.9,319.5,265.9,319.3z"/>
						</g>
						<g>
							<polygon class="st9" points="296.2,334.1 282.4,334.1 284.4,324.2 294.2,324.2 							"/>
							<path class="st9" d="M282.4,332.9c-2,0-3.5-1.6-3.5-3.5c0-2,1.6-3.5,3.5-3.5s3.5,1.6,3.5,3.5
								C286,331.3,284.4,332.9,282.4,332.9z M282.4,327.5c-1,0-1.9,0.8-1.9,1.9c0,1,0.8,1.9,1.9,1.9c1,0,1.9-0.8,1.9-1.9
								S283.5,327.5,282.4,327.5z"/>
						</g>
						<g>
							<polygon class="st10" points="294.8,326.4 281,325.9 283.3,316.1 293.2,316.5 							"/>
							<path class="st10" d="M281.1,324.7c-2-0.1-3.5-1.7-3.4-3.7s1.7-3.5,3.7-3.4s3.5,1.7,3.4,3.7
								C284.7,323.3,283,324.8,281.1,324.7z M281.3,319.3c-1,0-1.9,0.8-1.9,1.8s0.8,1.9,1.8,1.9s1.9-0.8,1.9-1.8
								C283.1,320.2,282.3,319.4,281.3,319.3z"/>
						</g>
					</g>
				</g>
			</g>
			<g id="monstera_5_">
				<path class="st10" d="M339.4,326.7c0,2.8-1.4,5.3-3.7,7.1H316c-2.3-1.9-3.7-4.4-3.7-7.1c0-5.8,6-10.4,13.5-10.4
					C333.4,316.3,339.4,321,339.4,326.7z"/>
				<g>
					<g>
						<g>
							<path class="st11" d="M330.9,329.7c-4.4-17.3-2.8-45.3,0-53.3c3-8.7,7.1-13.3,7.2-13.5l1.2,1.1l-0.6-0.6l0.6,0.6
								c0,0-4,4.6-6.9,13c-2.7,7.8-3.9,37.3,1.6,52.7L330.9,329.7L330.9,329.7z"/>
							<path class="st12" d="M321.7,331.1c-0.1-2.3-0.2-39.4-0.5-41.8c-0.9-8.4-3.1-16.6-8.6-19.6c-4.7-2.6-9.1,1.4-9.2,1.4
								l-1.5-3.4c0.2-0.1,5.7-3.2,11.2-0.2c5,2.8,8.2,9.7,9.5,20.5c0.3,2.5,1.4,40.1,1.5,43L321.7,331.1z"/>
							<path class="st11" d="M328.2,332.2l-3.2,0.2c3-20.9-2.2-35.7-4.7-37.3c-1.9-1.2-3.8-0.6-5.1,0.1c-2.7,1.5-4.6,4.6-4.6,6.4
								h-0.9c0-2.7,1.6-6.3,4.7-8c2.4-1.3,4.9-1.4,6.9-0.1C326.3,296.7,329.2,314.8,328.2,332.2z"/>
							<g>
								<path class="st11" d="M324.2,277.4c-0.5-0.9-1-1.8-1.4-2.8c-5.7-11.9,7.9-24.1,15.7-12.8l0,0c0.6,5.1,3.7,10.8,6.7,16.4
									c3.5,6.7,7.5,12,13.1,15.3c-3,1-6.5,1.5-10.1,1.2c-0.8-2.6,0.8-9.3-1.5-9c-2.4,0.3,0.2,7.1,1,8.9c-2.7-0.3-5.4-1-8.1-2.2
									c-0.3-3.1,5.3-10.9,2.3-11.7c-3.2-0.8-2.9,10.6-2.9,11.4c-2.6-1.2-4.2-2.1-6.6-4.4c-0.3-7,8.3-12.8,4.9-14.5
									c-3.8-1.9-6.4,13.1-6.4,13.1l0,0c-2.2-2.2-4.3-4.9-6.1-8.1c3.3-6.2,12.3-10.1,9.2-12.6C330.7,263.2,325.7,273.8,324.2,277.4
									z"/>
								<path class="st13" d="M345.2,278.2c3.5,6.7,7.5,12,13.1,15.3c0.1,0,0.1,0,0.2-0.1c0.2-2.4,1-5.5,2-9.9
									c-3-1.3-8.3-2.6-7.4-4.7c1-2,5.6,1.4,7.9,3.3c0.4-1.8,0.6-3.2,0.8-5.1c-4.7-3.3-11.4-2.9-10.3-5.3c1.1-2.3,7.7,1.7,10.4,3.9
									c0.2-2.7,0.3-4.3-0.3-7.1c-5.8-2.6-14.9,0.1-14.5-3.6s11.1,0.3,13.9,1.4c-0.4-1.4-0.9-2.8-1.7-4.2
									c-6.2-11.7-20.9-13.1-21-0.4l0,0l0,0C339.1,267,342.2,272.6,345.2,278.2z M344,257.8c1.4-2,5.9,0.5,5,2.8
									C348.2,262.9,340.9,262,344,257.8z"/>
							</g>
							<rect x="317.7" y="298.7" class="st10" width="16.4" height="35.2"/>
							<g>
								<path class="st12" d="M294.7,300c0.2-0.7,0.5-1.4,0.8-2.1c3.7-8.7,16.7-7.2,14.3,2.3l0,0c-2.5,2.8-4,7.1-5.6,11.4
									c-1.9,5.1-2.9,9.7-2,14.3c-2-1.1-3.9-2.8-5.5-4.9c1-1.7,5.4-4,4.1-5.1c-1.3-1.2-3.7,3.5-4.3,4.8c-1.1-1.6-2-3.4-2.7-5.4
									c1.5-1.6,8.4-2.3,7.4-4.3c-1.1-2.1-7.1,3.5-7.5,3.9c-0.6-2-0.9-3.2-0.8-5.6c3.6-3.5,10.8-1.6,10.1-4.3
									c-0.8-3-10.1,2.8-10.1,2.8l0,0c0.1-2.2,0.6-4.6,1.4-7.1c4.9-1.1,11.3,1.8,11.1-1.1C305.5,296.7,297.4,299.1,294.7,300z"/>
								<path class="st11" d="M304.2,311.6c-1.9,5.1-2.9,9.7-2,14.3l0.1,0.1c1.4-1,3.5-2.1,6.3-3.6c-0.7-2.2-2.5-5.7-1-6.2
									s1.9,3.7,2,5.8c1.1-0.6,2-1.2,3.1-2c-0.5-4.1-3.8-7.5-2-8s2.8,4.9,2.9,7.4c1.6-1.2,2.5-1.9,3.7-3.6c-1.4-4.4-7.1-7.9-5-9.5
									c2.2-1.6,5.1,6.1,5.9,8.2c0.6-0.9,1.1-1.8,1.5-2.9c3.4-8.9-2.9-17.5-9.8-11.5l0,0l0,0C307.4,303,305.9,307.4,304.2,311.6z"
									/>
							</g>
							<path class="st12" d="M291.6,273.2c-4.3,3.3-7.6,6.8-9.2,11.1l0.1,0.1c1.7-0.2,4,0,7.2,0.2c0.6-2.3,0.9-6.2,2.4-5.8
								c1.6,0.4-0.3,4.1-1.4,6c1.3,0,2.3,0.1,3.7,0c1.8-3.7,0.7-8.4,2.5-7.9s-0.2,5.6-1.5,7.8c2-0.2,3.1-0.3,5-1.1
								c1.1-4.4-1.9-10.5,0.8-10.7c2.7-0.2,1.1,7.9,0.7,10c1-0.5,1.9-1,2.8-1.7c7.5-5.8,6.7-16.4-2.3-14.9l0,0l0,0
								C298.8,267.6,295.2,270.4,291.6,273.2z"/>
						</g>
					</g>
				</g>
			</g>
			<g>
				<g>
					<rect x="167.6" y="184.9" class="st14" width="74.4" height="74.4"/>
					<rect x="170.3" y="187.7" class="st15" width="68.9" height="68.9"/>
					<g>
						<rect x="180.5" y="194.5" class="st10" width="49.2" height="5.6"/>
						<rect x="180.5" y="204.9" class="st10" width="20.6" height="2.4"/>
						<rect x="180.5" y="209.9" class="st10" width="27.8" height="2.4"/>
						<rect x="180.5" y="214.9" class="st10" width="20.6" height="2.4"/>
						<rect x="180.5" y="219.9" class="st10" width="20.6" height="2.4"/>
						<rect x="224.5" y="204.9" class="st10" width="5.1" height="2.4"/>
						<rect x="224.5" y="209.9" class="st10" width="5.1" height="2.4"/>
						<rect x="224.5" y="214.9" class="st10" width="5.1" height="2.4"/>
						<rect x="224.5" y="219.9" class="st10" width="5.1" height="2.4"/>
					</g>
					<g>
						<rect x="180.5" y="228.1" class="st10" width="49.2" height="5.6"/>
						<rect x="180.5" y="238.5" class="st10" width="20.6" height="2.4"/>
						<rect x="180.5" y="243.5" class="st10" width="15.8" height="2.4"/>
						<rect x="180.5" y="248.5" class="st10" width="20.6" height="2.4"/>
						<rect x="224.5" y="238.5" class="st10" width="5.1" height="2.4"/>
						<rect x="224.5" y="243.5" class="st10" width="5.1" height="2.4"/>
						<rect x="224.5" y="248.5" class="st10" width="5.1" height="2.4"/>
					</g>
					<rect x="249.6" y="184.9" class="st14" width="74.4" height="74.4"/>
					<rect x="252.3" y="187.7" class="st15" width="68.9" height="68.9"/>
					<g>
						<rect x="262.5" y="194.5" class="st10" width="49.2" height="5.6"/>
						<rect x="262.5" y="204.9" class="st10" width="15.8" height="2.4"/>
						<rect x="262.5" y="209.9" class="st10" width="20.6" height="2.4"/>
						<rect x="262.5" y="214.9" class="st10" width="20.6" height="2.4"/>
						<rect x="262.5" y="219.9" class="st10" width="20.6" height="2.4"/>
						<rect x="306.5" y="204.9" class="st10" width="5.1" height="2.4"/>
						<rect x="306.5" y="209.9" class="st10" width="5.1" height="2.4"/>
						<rect x="306.5" y="214.9" class="st10" width="5.1" height="2.4"/>
						<rect x="306.5" y="219.9" class="st10" width="5.1" height="2.4"/>
					</g>
					<g>
						<rect x="262.5" y="228.1" class="st10" width="49.2" height="5.6"/>
						<rect x="262.5" y="238.5" class="st10" width="20.6" height="2.4"/>
						<rect x="262.5" y="243.5" class="st10" width="27.8" height="2.4"/>
						<rect x="262.5" y="248.5" class="st10" width="20.6" height="2.4"/>
						<rect x="306.5" y="238.5" class="st10" width="5.1" height="2.4"/>
						<rect x="306.5" y="243.5" class="st10" width="5.1" height="2.4"/>
						<rect x="306.5" y="248.5" class="st10" width="5.1" height="2.4"/>
					</g>
				</g>
				<g>
					<path class="st10" d="M218,266.4c0,0,18.8,7.6,23,42.9c3.3,27.9-25.1,19.4-25.1,19.4s2.4-15.1,1-32.5
						C216.2,288,218,266.4,218,266.4z"/>
					<g>
						<path class="st10" d="M226.6,274c-1.7-5.3-15.3-11-18-11.6c-3.3-1.4-4.9-0.3-9.2,0c-5.1,0.3-16.1,3.6-18.6,9.5
							c-0.9,6.5,5.2,22.9,3.6,43.1H224C223.3,296.7,229.3,282.7,226.6,274z"/>
						<path class="st16" d="M223.9,314.9h-39.6c-0.2,2.6-0.6,5.3-1.1,8.1c-0.9,4.6-1.5,9.3-2.1,13.9c0,0,45,0.5,45.2-0.2
							c-0.5-4.3-1-8.7-1.7-13C224.2,320.7,224,317.7,223.9,314.9z"/>
					</g>
					<path class="st17" d="M208.5,262.3c0,0-5.4,2.9-9.2,0l0.8-9.9h7.6L208.5,262.3z"/>
					<polygon class="st16" points="218.8,316.7 188.8,315.9 192.1,282.5 215.1,282.5 					"/>
					<path class="st10" d="M185.1,267.1c0,0-14.6,8.7-17.6,36.8c-2.9,27.5,19.7,8.5,19.7,8.5L185.1,267.1z"/>
					<g>
						<path class="st16" d="M208.5,262.3c4.2,7.3,3.8,21.8,3.8,21.9l2.8,0.1c0-0.9,0.4-19.5-6.8-23.5L208.5,262.3z"/>
						<path class="st16" d="M198.7,261.2c-6.3,5.7-6.6,22-6.6,22.7h2.8c0,0-0.5-11.4,4.4-21.6c0-0.1,0.2-1.8,0.2-1.8
							C199.2,260.8,198.9,261,198.7,261.2z"/>
					</g>
					<g>
						<path class="st18" d="M212.7,330.3h-2.4c0,0,0.7-17,0.7-22.6c0-1.5-1.2-2.6-2.6-2.6h-3.8v-0.9h3.8c2,0,3.6,1.6,3.6,3.6
							C212,313.4,212.7,330.3,212.7,330.3z"/>
						<g id="tea_pot_3_">
							<g>
								<polygon class="st19" points="204.3,307.2 208.6,305.1 206,303.1 205.8,303.4 197.4,296.9 189.6,305.4 200.3,313.6 								
									"/>
								<path class="st19" d="M190.1,299.9l-1.3-1l1.5-1.9c1.6-2.1,4.6-2.5,6.7-0.9l0,0l0,0l11.7,8.9l-1.6,0.8c0,0-11-8.4-11-8.5
									c-1.4-1-3.3-0.8-4.4,0.6L190.1,299.9z"/>
							</g>
							<polygon class="st20" points="199.6,312.3 197.9,311 204.2,303 205.1,303.6 							"/>
						</g>
					</g>
					<g id="cup_2_">
						<polygon class="st10" points="204.2,324.5 217.7,324.5 215.8,334.2 206.1,334.2 						"/>
						<path class="st10" d="M217.7,325.7c1.9,0,3.5,1.6,3.5,3.5s-1.6,3.5-3.5,3.5s-3.5-1.6-3.5-3.5S215.8,325.7,217.7,325.7z
							 M217.7,331c1,0,1.8-0.8,1.8-1.8s-0.8-1.8-1.8-1.8s-1.8,0.8-1.8,1.8S216.7,331,217.7,331z"/>
					</g>
					<path class="st21" d="M221.2,322.1c3-1,6.6,0.2,7.2,2.1c0.2,0.6,0.1,1.1-0.1,1.7c-0.2,0.6-2.7,1.1-3.8,1.2
						c-0.6,0.1-1.2,0.2-1.8,0.5c-1.3,0.5-2.3,1.3-2.9,2.1c-1.2-0.3-2.1-0.9-2.4-1.9C216.7,325.9,218.1,323.1,221.2,322.1z"/>
					<path id="hand_1_" class="st21" d="M190.8,295.6c-1.6-1-4.2-0.4-7.2,1.8c-3,2.2-1.2,6.1,1.2,6.1
						C187.3,303.5,196.1,298.9,190.8,295.6z"/>
					<g id="head_3_">
						<path id="hair_1_" class="st18" d="M194.7,243.9c0,0-1.1-6,0.8-9.8c2.4-4.7,9.7-7.3,15.3-2.3c3.9,3.5,1.8,12.7,1.8,12.7
							l-12.2-5.2L194.7,243.9z"/>
						<g>
							<path class="st17" d="M196.2,242.8c0,0-1-0.7-1.8,0.4c-0.8,1.1-0.3,5,1.7,5C198.1,248.2,196.2,242.8,196.2,242.8z"/>
							<path class="st17" d="M211.6,242.8c0,0,1-0.7,1.8,0.4c0.8,1.1,0.3,5-1.7,5C209.7,248.2,211.6,242.8,211.6,242.8z"/>
							<path class="st21" d="M211.9,241.7c0-4.5-3.6-7.4-8.1-7.4s-8.1,2.9-8.1,7.4c0,0-0.4,5.7-0.4,6c0,4.2,5.2,9.6,8.4,9.6
								c3.7,0,8.4-6.4,8.4-9.6C212.3,247.4,211.9,241.7,211.9,241.7z"/>
						</g>
					</g>
					<ellipse class="st18" cx="203.9" cy="223" rx="6.1" ry="7.7"/>
				</g>
				<g>
					<rect x="106.9" y="349.1" class="st14" width="228.9" height="98.9"/>
					<g>
						<rect x="103.2" y="340.9" class="st15" width="236.2" height="27.1"/>
						<rect x="103.2" y="370.8" class="st15" width="236.2" height="27.1"/>
						<rect x="103.2" y="400.6" class="st15" width="236.2" height="27.1"/>
						<rect x="103.2" y="430.5" class="st15" width="236.2" height="27.1"/>
					</g>
					<g>
						<rect x="97.1" y="333.9" class="st14" width="248.5" height="7"/>
					</g>
				</g>
			</g>
			<g>
				<g>
					<polygon points="222,438.8 152.4,372.7 152.9,372.1 222.5,438.3 					"/>
					<g>
						<path d="M152.1,371.3l0.5-0.1c0,0,0.1-3.4-0.8-3.5c-0.4-0.1-1.2,0.3-1.2,0.3L152.1,371.3z"/>
						<path class="st18" d="M142.8,374c-0.1,1,0.1,2.1,0.6,3c1.4,2.6,4.6,3.6,7.2,2.2c1.8-1,2.8-2.8,2.8-4.7c0.1-2-2.2-6.5-2.9-7.8
							c-0.9-1.6-2.9-2.3-4.6-1.4l-4.4,2.4c-1.6,0.9-2.3,2.9-1.4,4.6C140.7,373.2,141.7,373.9,142.8,374z M149.4,367.2
							c0.4,0.7,0,1.5-0.6,2c-1.1-0.2-2.2,0-3.3,0.6s-1.9,1.5-2.3,2.5c-0.9,0.1-1.8-0.1-2.1-0.6c-0.6-1.1-0.2-2.4,0.9-3
							c2-0.3,2.8-0.9,4.4-2.4C147.5,365.7,148.9,366.1,149.4,367.2z"/>
					</g>
				</g>
				<g id="dog_1_">
					<path class="st18" d="M206.9,444.2c2.4-4.9,10.6-5.9,14.9-5.8c3.9,0,3.2-6.1,4.2-7.1c-0.4-1.4,0.6-12.4,3.8-12
						c3.2,0.3,5.5,7.6,5.5,7.6c2.1-0.4,4.7,0,4.7,0c1.9-6.3,3.2-8.2,4.9-6.9c1.8,1.5,5,9.7,2.5,13.1c1.2,5.6,0.3,10.7-0.5,16.4
						c-0.3,2-0.9,3.7-1.9,5.2c-1.4,1.5-3,2.2-4.4,3.1c-1.6,1.1-18.2,0.9-23.7,0.1c0,0-3.9-1.9-6.3-0.7l0,0c-1.7,0.4-5.7,8-7.9,7
						C200.4,462.9,203.5,451.2,206.9,444.2z"/>
					<path class="st18" d="M216.4,439.1c-3.4-1.5-7.1-4.5-7.9-3.3c-0.8,1.2,0.7,6.6,0.7,6.6S218,439.8,216.4,439.1z"/>
					<path class="st18" d="M220.4,464.8c-3.6,0.1-8.6-8.4-8.6-8.4l7.6,1.4C219.4,457.8,223.6,464.7,220.4,464.8z"/>
					<path class="st18" d="M250.6,452.5c0,2.3-0.9,7.1-2.6,6.3c-2.8-1.1-1.9-4.5-1.9-4.5s-2.8,3.6-7.3,4.4c-2,0.5-4.4-0.2-4.3-0.5
						c0.5-1.9,9.3-5.8,9.8-6.8C245.1,449.5,250.6,447.2,250.6,452.5z"/>
					<path class="st10" d="M228.4,439.7c0.8-0.8,5.5,3.3,7.5-3.1c0.7-2.4,0.7-4.6,0.4-6.5c-0.2-1.3,3.4-1.5,3.6,0
						c0.3,2.5,0.8,5.2,1.2,6.4c0.8,2.6,1.1,4.7,4.9,4.3c0.3,11.3-4.8,17.6-9.6,18.3c-1.6,0.2-2.5,0.1-2.9-0.6
						c-0.7-1.1-0.3-2.7-0.3-2.8c-0.8-1.4-2.9-3.7-4-8.2C228.2,443.8,228,440,228.4,439.7z"/>
					<path class="st10" d="M221.7,455.8c4.1,0.5,4.7,1.7,4.7,1.7l1.8,2c-5.5,0.4-16.4-1.6-17.5-2.4
						C212.9,456,217.2,455.3,221.7,455.8z"/>
					<path class="st16" d="M233.8,458.8c4.7-0.7,6.2-7.9,6.2-8l1.5,0.3c0,0.1-0.4,2.1-1.5,4.2c-0.8,1.6-1.8,2.8-2.9,3.7
						c-0.5,0.2-1.4,0.2-1.9,0.2C234.3,459.1,233.8,458.8,233.8,458.8z"/>
					<path class="st18" d="M231.1,452.4c0,0,5.5,8.9,6.5,9.8c0.9,0.9-1.2,4.3-4.7,2s-6.3-6.8-9.7-8.6
						C221,454.4,227.5,450.7,231.1,452.4z"/>
					<g>
						<path class="st10" d="M233.8,428c0.7-1.7-1.8-6.4-3.8-6.5s-3.1,8.2-2.5,8.9C228.5,430.5,232.5,429.2,233.8,428z"/>
						<path class="st10" d="M241.2,427.4c-0.3-1.5,1.6-4.9,2.8-5.2c1.8-0.4,3.6,8.7,2.5,9.5C245.4,431.1,243.2,428.4,241.2,427.4z"
							/>
						<path class="st22" d="M240.6,437.8c0.4,0.2-0.4,2-1.5,1.9c-1.1,0-1.6-1.3-1.4-1.8C237.9,437.5,240,437.3,240.6,437.8z"/>
						<ellipse class="st22" cx="244.1" cy="436.1" rx="1.1" ry="1.2"/>
						<ellipse class="st22" cx="233.2" cy="436.1" rx="1.1" ry="1.2"/>
					</g>
					<path class="st16" d="M224,459.5c-0.9-1-2.2-2.7-3.2-4.9c-1.6-3.5-2.9-9.2,0.2-16.3c0-0.1,1.5-0.4,1.7-0.1c0.7,1,2.5,3.5,5,5.9
						c2.9,2.8,7.2,6.1,11.8,6.1c0,0,0,0,0.1,0c2.3-0.2,4.1-0.5,5.4-1.3c1.4-0.9,2.1-1.4,2.3-1.6c-0.1,0.6-0.2,1.9-0.3,2
						c-1.6,1.6-4.1,2.4-7.3,2.4h-0.1c-4,0-8.4-2.2-12.8-6.5c-2.1-2.1-3.8-4.1-4.7-5.3c-2,5-1.9,9.7,0.1,14.1
						c1.7,3.6,4.1,5.6,4.1,5.6C226.2,459.6,225.5,459.7,224,459.5z"/>
				</g>
			</g>
			<g>
				<g>
					<g>
						<circle class="st10" cx="56.9" cy="244.8" r="19.3"/>
						<g id="_x30_4_Standing_5_">
							<path id="head_7_" class="st21" d="M66.3,243.5c0-2.8,2.5-3.8,5.2-2c1.9,1.3,3.4,3.4,3.9,6.8c1,5.8,2.2,15.8-1.5,17.1
								c-1.6,0.6-7.8,0-7.8,0l1.7,9.3L56,272.3l1.9-9.8C58.1,262.4,50.1,247.6,66.3,243.5z"/>
						</g>
					</g>
					<g>
						<path class="st18" d="M73.4,257.9c-2.8-0.6-4.2,2.8-5.7,2.4c-0.9-0.3-1.6-3.4-1.8-6.5c0-0.1,0-0.2,0-0.4l-2,2.5l0,0
							c-0.2,2.6-0.7,5.6-0.2,7.3c0.8,2.8,10.9,3.2,11.7,3.2s0.9-2.6,1.2-4.8C76.7,259.4,76.1,258.5,73.4,257.9z"/>
						<path class="st10" d="M58.1,262.4c0,0,13.7-17.5,16.9-21c1.7-1.9-1.3-3.1-1.3-3.1c-2.2-8.2-18.4,0-21.2,6.4
							C49.4,251.5,56.8,262.6,58.1,262.4z"/>
					</g>
				</g>
				<g>
					<path class="st21" d="M97.8,352.7c0,0,0.6,4.3,0.6,4.7c0,0.4,2.1,9.2,2.1,9.7s-0.7,5.5-1,5.8c-0.2,0.4-4.3,4.4-4.3,4.4
						s-1,0.1-0.8-0.9s-0.4-0.6-0.5-1s1.8-4.4,1.8-4.4l0.3-2.8l-0.6-0.7L93,373c0,0-0.6,0.3-0.8-0.3c-0.2-0.6,1.6-6.3,1.6-6.3
						s-0.6-4-0.7-5c-0.1-0.9,0.4-3.4,0.4-3.4l-1.7-4.7L97.8,352.7z"/>
				</g>
				<g id="_x30_3_3_x2F_4_3_">
					<g id="_x30_3_Standing_4_">
						<g id="leg_16_">
							<path class="st18" d="M57.1,334.4c0,0,11.7,59.9,12.2,64.6s-1,27.5,4.4,48.6l10.3,0.3c0.4-14,1.1-40.2,1.1-45.9
								c0.1-8.1,0.4-53.9,0.4-53.9S61.7,323.1,57.1,334.4z"/>
							<polygon class="st21" points="74.6,456.5 79.8,459.9 82.5,454.2 82.5,447.9 74.6,447.6 							"/>
						</g>
					</g>
					<g id="_x30_3_Front_4_">
						<g id="leg_15_">
							<polygon class="st21" points="53.1,458.3 45.7,456.2 45.9,446.8 53.7,446.8 							"/>
							<path class="st18" d="M40.1,347.7c0,0,2.6,28.1,3.6,54c-1.7,21.7-0.1,42.8,0.2,45.8h11c0.1-5.7,1.3-26.2,3.7-44.7
								c3.5-27.1,8.7-57,8.7-57S44.6,336.4,40.1,347.7z"/>
						</g>
						<g id="hand_8_">
							<path class="st10" d="M76.9,272.3c0,0,17.3,5.7,20.7,47.1c2.2,27.4,2.1,38.2,2.1,38.2l-7.9,0.1c0,0-15.4-38.4-16.8-55.4
								C74.4,294.2,76.9,272.3,76.9,272.3z"/>
						</g>
						<path class="st10" d="M57.4,269.1c-5,0.5-14,5.4-15.5,6.8C39.4,293,39,358.6,39,358.6l48,0.4c0,0,1.2-58.2-5.9-83.3
							c-2.3-3.8-11.1-5.7-13.7-6.5C67.1,269.1,57.5,269,57.4,269.1z"/>
					</g>
					<path class="st10" d="M44,274.4c-12.3,7.2-19.8,32.7-17.5,46.2c2.2,13,23.5,21.6,23.5,21.6S50,284,44,274.4z"/>
				</g>
				<g>
					<path class="st10" d="M74.3,455.6c-0.5,0.1-2,9.7-1.1,10.2s25.2,0.9,26.7-0.5c0.7-0.7,0-3.9-0.6-4.1
						c-9.4-2.6-16.2-7.6-16.2-7.6s-2.4,0.9-2.1,2.2l0.3,0.5c0,0-1.5,1.4-3,1.3C76.7,457.4,75.7,455.2,74.3,455.6z"/>
					<path class="st10" d="M44,458c0.1-0.7,0.7-1.5,1.1-1.9c0.4-0.4,0.6-0.7,1.1-1.9c0.4-1.2,2-1.5,3-1.5l0,0l0,0l0,0l0,0
						c1,0,2.6,0.4,3,1.5c0.5,1.3,0.6,1.5,1.1,1.9c0.4,0.4,1,1.2,1.1,1.9c0.1,0.7,0.7,8.2-0.7,8.3c-0.7,0.1-2.6-0.1-4.5,0l0,0l0,0
						l0,0l0,0c-1.9,0-3.8,0.1-4.5,0C43.3,466.2,43.9,458.6,44,458z"/>
				</g>
			</g>
			<g id="_x30_4_3_x2F_4_2_">
				<g>
					<path class="st21" d="M150.8,352.7c0,0,0.6,4.3,0.6,4.7c0,0.4,2.1,9.2,2.1,9.7s-0.7,5.5-1,5.8c-0.2,0.4-4.3,4.4-4.3,4.4
						s-1,0.1-0.8-0.9s-0.4-0.6-0.5-1s1.8-4.4,1.8-4.4l0.3-2.8l-0.6-0.7L146,373c0,0-0.6,0.3-0.8-0.3c-0.2-0.6,1.6-6.3,1.6-6.3
						s-0.6-4-0.7-5c-0.1-0.9,0.4-3.4,0.4-3.4l-1.7-4.7L150.8,352.7z"/>
				</g>
				<g id="_x30_4_Standing_3_">
					<g id="leg_6_">
						<path class="st21" d="M135,400.8c0.1-8.1,1.8-32.5,1.8-32.5s-22.5-47-27.1-35.7c0,0,15.6,54.7,16.1,59.3
							c0.5,4.7-3.4,13.6-0.8,29.7c1.3,8,3.9,35.2,3.9,35.2l4.7,6.4l2.6-8.7C136.2,454.5,134.9,406.5,135,400.8z"/>
					</g>
				</g>
				<path id="head_1_" class="st21" d="M115.9,238.7c4.9-1.2,11.7-0.2,13.1,8c1,5.8,2.2,15.8-1.5,17.1c-1.6,0.6-7.8,0-7.8,0l1.7,9.3
					l-11.8-2.4l1.9-9.8C111.6,260.7,99.8,242.7,115.9,238.7z"/>
				<path class="st23" d="M98.4,278.8c0,0-18.4,32.7-15,42.7c4.3,12.8,19.8,16.4,19.8,16.4L98.4,278.8z"/>
				<g id="_x30_4_Front_3_">
					<g id="leg_5_">
						<path class="st21" d="M95,349.2c0,0,2.7,18.9,3.7,43.3c0.8,21.4-3.7,21.5,0.2,51.6l0.5,11.2l6.2,3c0,0,1.5-33.9,9.5-114.2
							C115.1,344.1,99.5,337.9,95,349.2z"/>
					</g>
					<g id="hand_3_">
						<path class="st23" d="M129.2,271.9c0,0,15.5,6.1,18.9,47.5c2.2,27.4,4.6,38.2,4.6,38.2l-7.9,0.1c0,0-15.4-38.4-16.8-55.4
							C127.4,294.2,129.2,271.9,129.2,271.9z"/>
					</g>
					<path id="dress_2_" class="st23" d="M110.8,269c-5,0.3-10.6,1.2-12.1,6.4c-1,7.2,0.6,27.3-3.7,50.7c-3.5,32.9-3,71.3-3,71.3
						l48,0.4c0,0,0.6-36-4.3-68.6c-3.3-22.1-0.6-43.8-3.7-53.8c-1.5-4.7-7.9-5.6-11.2-6.2C120.5,269.2,115.1,268.8,110.8,269z"/>
				</g>
				<path id="hair_2_" class="st18" d="M106.4,238.2L106.4,238.2c-16.5,12.3-6.4,65.7-19.9,74c31,1.1,28.5-56,28.5-56
					c0.3-0.8-2.6-2.9-1.3-5.4c1-2,3-2.6,4.4-0.2c0,0,3.4-10.2,7.4-10.9C122.8,234.6,110.7,234.2,106.4,238.2z"/>
				<g>
					<path class="st10" d="M128.5,455.9c-0.5,0.1-1.9,9-1,9.5c0.8,0.5,23.4,0.8,24.7-0.5c0.7-0.7,0-3.7-0.5-3.8
						c-8.7-2.4-15.1-7-15.1-7s-2.2,0.8-2,2l0.3,0.5c0,0-1.4,1.3-2.8,1.2C130.7,457.6,129.7,455.5,128.5,455.9z"/>
				</g>
				<g>
					<path class="st10" d="M98.4,453.9c-0.5,0.1-3,8.7-2.2,9.3c0.7,0.6,23.1,3.7,24.6,2.6c0.8-0.6,0.4-3.6,0-3.8
						c-8.4-3.5-14.1-8.9-14.1-8.9s-2.3,0.5-2.2,1.7l0.2,0.5c0,0-1.6,1.1-2.9,0.8C100.4,455.9,99.7,453.7,98.4,453.9z"/>
				</g>
			</g>
			<g>
				<g>
					<g>
						<g>
							<g>
								<g>
									<path class="st11" d="M338.8,360.5c0,0,8.8,3.5,12.8,4.7c3.9,1.1,21,6.4,21,6.4s-14.8-8.2-19.4-9.4c-4.5-1.2-13.3-3-13.3-3
										L338.8,360.5z"/>
									<path class="st11" d="M341.4,356c0,0,11.7,2.8,14.8,3.1c3.1,0.3,21.2,3.7,21.2,3.7s-11.4-6.5-19.4-7.9
										c-8.1-1.4-15.8-1-15.8-1S340.5,355.6,341.4,356z"/>
									<path class="st11" d="M344.2,351.5c0,0,12.3,0.9,15.5,1.3s25.1,2.2,25.1,2.2s-16.8-5.5-23.2-6c-6.4-0.5-16.8,0.8-16.8,0.8
										L344.2,351.5z"/>
									<path class="st11" d="M346.8,346.9c0,0,12.2-0.8,15.1-0.4s20.6-1.6,20.6-1.6s-17.2-2.4-19.7-2.4c-2.6,0-14.9,1.9-14.9,1.9
										L346.8,346.9z"/>
									<path class="st11" d="M351.1,340.9c0,0,8.3,1,12.3,0.8s20.1-0.2,20.1-0.2s-13.4-2.8-19.3-3.3c-5.9-0.4-11.9,0.9-11.9,0.9
										L351.1,340.9z"/>
									<path class="st11" d="M354.4,336.3c0,0,12.9,0.6,16,0.7s20.8,1.4,20.8,1.4s-13.4-4.3-19.9-4.7c-6.4-0.4-16,1.2-16,1.2
										L354.4,336.3z"/>
									<path class="st11" d="M359.2,331.3c0,0,9.9,1.8,12.8,1.6c2.9-0.2,18.7-0.3,18.7-0.3s-10.9-3.2-15.9-3.4
										c-5-0.2-14.6,0.8-14.6,0.8L359.2,331.3z"/>
									<path class="st11" d="M364,326.9c0,0,9.4,1,12.3,1.1c2.9,0.2,16.8-0.6,16.8-0.6s-10.3-2.9-14.7-2.9
										c-4.4,0-13.4,0.7-13.4,0.7S363.1,326.5,364,326.9z"/>
									<path class="st11" d="M368.1,322.6c0,0,11,1.2,12.7,1.4c1.8,0.2,14.7,0,14.7,0s-9.3-2.9-13.4-2.8s-12.7,0.4-12.7,0.4
										L368.1,322.6z"/>
									<path class="st11" d="M371.1,319.6c0,0,10.4,1.2,14.1,0.1s11.9-2.4,11.9-2.4s-9.4-1.3-12.2-0.6c-2.8,0.8-12,1.7-12,1.7
										L371.1,319.6z"/>
									<path class="st11" d="M375,316.9c0,0,14.4-2.4,16-2.5c1.5-0.1,12.8-3.2,12.8-3.2s-9.9,0.3-14.1,0.3s-13.4,4.4-13.4,4.4
										L375,316.9z"/>
									<path class="st11" d="M345.3,345.3c18.1-24.4,32.2-29.9,32.2-29.9s-25,18.9-35.6,40.7c-1,2.1-4.8,11-5.9,13.7l0.6-9.3
										C339.1,355.1,342.2,349.5,345.3,345.3z"/>
								</g>
								<g>
									<path class="st13" d="M329.2,388.8c1.9-17,10.7-66.2,48.6-93.7c-1.7,5-32,16-45,90.6L329.2,388.8z"/>
									<path class="st13" d="M319.9,315.3c0,0,9.6,14.5,11.5,17.9c1.8,3.4,7.9,17.2,7.9,17.2l-0.9,1.6c0,0-8.5-10.3-10.4-16
										C326,330.2,319.9,315.3,319.9,315.3z"/>
									<path class="st13" d="M325.3,307.4c0,0,8.1,15.3,9.2,18.7c1.1,3.4,6.7,17.6,6.7,17.6l-0.5,2.1c0,0-7.4-12.1-9.2-16.1
										C329.6,325.7,325.3,307.4,325.3,307.4z"/>
									<path class="st13" d="M332,304.2c0,0,5.9,13.4,6.8,16.3s4.4,18.9,4.4,18.9l-0.7,1.5c0,0-5-13.6-6.5-17.1
										C334.5,320.4,332,304.2,332,304.2z"/>
									<path class="st13" d="M336.3,299.2c0,0,5.3,14.5,6,17.1s3.9,16.5,3.9,16.5l-0.5,1c0,0-5.3-11.9-6.3-15
										C338.6,315.6,336.3,299.2,336.3,299.2z"/>
									<path class="st13" d="M341.9,297.4c0,0,3.6,12.1,4.4,15c0.8,2.8,2.9,14.8,2.9,14.8l-0.7,1.5c0,0-4-10.3-4.8-13.6
										C342.7,311.9,341.9,297.4,341.9,297.4z"/>
									<path class="st13" d="M347.6,290c0,0,2,13.4,2.7,16.8s2.7,13.9,2.7,13.9l-0.7,2.3c0,0-4.4-13.1-5.3-15.8
										C346.1,304.5,345.2,293.4,347.6,290z"/>
									<path class="st13" d="M351.9,286.8c0,0,2.7,12.6,3,14.5s1.6,14.6,1.6,14.6l-1.6,2.4c0,0-2-10.8-2.7-13.2
										C351.6,302.9,350.7,288.8,351.9,286.8z"/>
									<path class="st13" d="M359.3,284.1c0,0,0.7,10.7,0.8,12.9c0.1,2.2-0.9,15.6-0.9,15.6l-0.6,1.1c0,0-1.6-12.6-1.9-15.8
										C356.4,294.7,358.1,285.8,359.3,284.1z"/>
									<path class="st13" d="M367.1,282.2c0,0-0.8,11-1.2,12.9c-0.5,1.9-2.8,13.8-2.8,13.8l-1.4,1.2c0,0,0-11,0.5-14
										C362.6,293.1,365.3,284.7,367.1,282.2z"/>
									<path class="st13" d="M374.4,280c0,0-2.7,10.7-3.5,12.7c-0.9,2-3.9,11.4-3.9,11.4l-1.4,1.4c0,0,1.1-8.6,1.7-12
										C367.9,290.2,373.4,280.6,374.4,280z"/>
									<path class="st13" d="M376.9,296.1c0,0,7.2-7.2,11.1-8.7s12.3-3.2,12.3-3.2S379.1,293.6,376.9,296.1z"/>
									<path class="st13" d="M381.9,278c0,0-3.8,8.4-4.7,10.2c-0.9,1.8-6.2,12.3-6.2,12.3l-1.8,1.5c0,0,1.8-8,3.8-12
										C374.9,285.9,379,279.4,381.9,278z"/>
									<path class="st13" d="M389.6,277.9c0,0-4.8,6.4-6.2,8.7c-1.5,2.3-6.4,8.9-6.4,8.9l-1.4,1.6c0,0,2.2-7.5,4.6-11
										C382.5,282.6,387.5,278.3,389.6,277.9z"/>
								</g>
								<g>
									<path class="st13" d="M327.7,355.3c0,0-13-1.5-16.4-1.9s-18.7-2.5-18.7-2.5s14.5-0.9,18.3-0.4c3.9,0.5,15.7,2.8,15.7,2.8
										L327.7,355.3z"/>
									<path class="st13" d="M325.5,350.6c0,0-11.5-0.8-14.1-1.3s-20.5-3.5-20.5-3.5s13.3-1,20.1-0.2c6.8,0.8,14.4,3.2,14.4,3.2
										S326.4,350.5,325.5,350.6z"/>
									<path class="st13" d="M324.3,346.5c0,0-10.2-1.9-12.8-2.3c-2.7-0.3-20.8-3.6-20.8-3.6s14.7-0.9,20,0.1s13.4,4.2,13.4,4.2
										L324.3,346.5z"/>
									<path class="st13" d="M322.9,342.4c0,0-9.9-2.4-12.3-2.6c-2.5-0.1-16.7-4.4-16.7-4.4s14.5,0.6,16.6,1s12,3.8,12,3.8
										L322.9,342.4z"/>
									<path class="st13" d="M320.2,336.8c0,0-7-0.5-10.2-1.2s-16.5-3.1-16.5-3.1s11.5-0.3,16.3,0.2c4.9,0.5,9.6,2.5,9.6,2.5
										L320.2,336.8z"/>
									<path class="st13" d="M318.2,332.5c0,0-10.7-1.5-13.3-1.8c-2.5-0.4-17.3-1.9-17.3-1.9s11.7-1.5,17-0.9
										c5.3,0.7,13,3.3,13,3.3L318.2,332.5z"/>
									<path class="st13" d="M315,327.6c0,0-8.4,0-10.8-0.6c-2.3-0.6-15.4-3.1-15.4-3.1s9.4-1,13.6-0.4s11.9,2.8,11.9,2.8
										L315,327.6z"/>
									<path class="st13" d="M311.7,323.3c0,0-7.9-0.6-10.3-0.9s-13.8-3-13.8-3s8.9-0.8,12.5-0.2c3.6,0.6,10.9,2.6,10.9,2.6
										S312.5,323.1,311.7,323.3z"/>
									<path class="st13" d="M309,319.1c0,0-9.2-0.6-10.7-0.8c-1.5-0.1-12.1-2.2-12.1-2.2s8.1-1,11.5-0.3s10.4,2.2,10.4,2.2
										L309,319.1z"/>
									<path class="st13" d="M307,316.3c0,0-8.7-0.6-11.6-2s-9.4-3.7-9.4-3.7s8,0.3,10.1,1.4c2.2,1.1,9.6,3.2,9.6,3.2L307,316.3z"
										/>
									<path class="st13" d="M304.2,313.5c0,0-11.5-4.1-12.8-4.4c-1.2-0.3-10.1-4.5-10.1-4.5s8.1,1.7,11.6,2.4
										c3.5,0.7,10.3,5.6,10.3,5.6L304.2,313.5z"/>
									<path class="st13" d="M324.3,341.2c-11.3-22.8-22-29.4-22-29.4s17.8,19.3,23.2,38.8c0.3,1,5,17,7.2,24.8
										c0.6,2.2,2.4-3.3,1.7-5.5C331.6,361,325.8,344.2,324.3,341.2z"/>
									<path class="st13" d="M314.3,361.5c-4.4,0.2-11.5,4.1-11.5,4.1s8.9-0.9,12.5-1.1c0.2,0,14.6-2.6,14.8-2.6l-0.1-1
										C328,360.9,315.6,361.5,314.3,361.5z"/>
									<path class="st13" d="M312.5,356c-4.5,0.1-16.1,2.6-16.1,2.6s12.4,0.7,15.2,0.8c1.2,0,14.1-0.5,17.5-0.4l-0.9-1.5
										C324.6,356.9,315,355.9,312.5,356z"/>
								</g>
							</g>
						</g>
						<g id="plant_11_">
							<rect x="314.6" y="375.4" class="st18" width="37.6" height="6.6"/>
							<path class="st18" d="M317.9,389c0,8.6,7,15.5,15.5,15.5l0,0c8.6,0,15.5-7,15.5-15.5v-10.4h-31.1V389H317.9z"/>
							<rect x="317.9" y="392.7" class="st10" width="31.1" height="1.2"/>
							<polygon class="st10" points="365.2,462.1 366.3,462.1 348.4,393.1 347.3,393.4 							"/>
							<polygon class="st10" points="301.9,462.1 319.7,393.4 318.6,393.1 300.7,462.1 							"/>
							<polygon class="st10" points="322.7,462.1 329.6,393.3 328.5,393.2 321.6,462.1 							"/>
							<polygon class="st24" points="349,382 336.2,382 349,386 							"/>
						</g>
					</g>
				</g>
			</g>
		</g>
	</g>
</g>
</svg>
