<?xml version="1.0" encoding="utf-8"?>
<!-- Generator: Adobe Illustrator 24.0.0, SVG Export Plug-In . SVG Version: 6.00 Build 0)  -->
<svg version="1.1" id="Layer_1" xmlns="http://www.w3.org/2000/svg" xmlns:xlink="http://www.w3.org/1999/xlink" x="0px" y="0px"
	 viewBox="0 0 385 515" style="enable-background:new 0 0 385 515;" xml:space="preserve">
<style type="text/css">
	.st0{fill:#2F3C75;}
	.st1{fill:#E2857E;}
	.st2{fill:#2A3756;}
	.st3{fill:#FFFFFF;}
	.st4{fill:#1D273F;}
	.st5{fill:#FCF75A;}
	.st6{fill:#2B72B6;}
	.st7{fill:#26669B;}
	.st8{fill:#F4F4F4;}
	.st9{fill:#B9CAE3;}
	.st10{fill:#A2B5CC;}
</style>
<path class="st0" d="M292.6,477c0,4.1-26.6,7.3-90.5,7.3c-63.8,0-140.7-3.3-140.7-7.3c0-4.1,76.9-7.3,140.7-7.3
	C265.9,469.6,292.6,472.9,292.6,477z"/>
<g id="_x30_1_Walking">
	<g id="head_4_">
		<path class="st1" d="M197.7,154.5c7.1-1.8,17.3,3.2,18.9,11.5c1.6,8.3,3.1,22.8-2.1,24.6c-2.3,0.8-11.2,0-11.2,0l1.9,9.9h-16.3
			l2.7-14.2C191.5,186.3,174.3,160.4,197.7,154.5z"/>
		<path class="st2" d="M214.4,161c0,0-7.5,1.5-9.1,5.6s-0.7,12.4-4.6,5.1c-1.9-3.6-4.8-2.6-6.3,0.3c-1.9,3.5,2.3,6.6,1.9,7.8
			c-0.4,1.2-4,6.4-4.9,6.5s-10.3-14.9-6.1-24.7C189.4,152.4,211.3,149.2,214.4,161z"/>
		<path class="st2" d="M214.4,161c0,0,7.4-7.1,5.8-9.3c-1-1.4-5.4,2.8-6.5,1.6c-0.9-1,2.9-3.9,2.1-5c-4.3-5.6-26.2,3.9-26.8,9.1
			C188.4,162.5,214.4,161,214.4,161z"/>
	</g>
	<g id="leg_2_">
		<polygon class="st2" points="142.5,478.9 109.3,460.3 115.3,451.9 131.2,457 145,475.4 		"/>
		<polygon class="st3" points="117.2,452.5 128.9,456.3 133.3,448.6 122.1,443 		"/>
		<polygon class="st1" points="133.3,448.6 122.1,443 124.9,437.4 135.7,444.4 		"/>
		<path class="st4" d="M214.1,323.2c0,0-35,63.5-42.2,72.6c-4.8,6.1-21.4,32.6-32,51.5L122,436.7c1.3-10.4,4.2-18.8,11.1-30.3
			c14.4-24.3,23.9-36.9,30.4-57.8s3.8-45.2,10.6-56.3C181,281.4,214.1,323.2,214.1,323.2z"/>
	</g>
	<g id="leg_1_">
		<polygon class="st2" points="293,464.9 257.7,479 254.9,469 268.9,459.9 291.8,460.8 		"/>
		<polygon class="st3" points="256.6,467.9 266.8,461.2 263.6,452.9 252.2,458.2 		"/>
		<polygon class="st1" points="263.6,452.9 252.2,458.2 249.7,452.5 261.9,448.4 		"/>
		<path class="st2" d="M169.5,309.4c0,0,43.6,68.1,46.5,74.2c3,6.1,3.2,19.8,14.6,40.3c5.7,10.3,12.4,20.9,17.7,29l17.2-5.6
			c-6.4-19.2-17.5-52.8-20.2-60.6c-3.8-11-19.4-79.8-19.4-79.8S170.3,292,169.5,309.4z"/>
	</g>
	<g id="hoodie_1_">
		<path class="st5" d="M208.3,197.9L158,185.6c0,0-10.2,31.9,15.1,33.4S208.3,197.9,208.3,197.9z"/>
		<path class="st5" d="M194.6,196.3c-7.2,0.4-13.9,8-18.6,21.7c-3.6,24.7-16.4,116.8-16.4,116.8l76-6.8c0,0-11.9-119.3-24.8-129.3
			C206.1,196.9,200.7,196,194.6,196.3z"/>
	</g>
	<g>
		<g>
			<polygon class="st6" points="151,429.2 213.6,444.2 229,365.6 169.6,351.4 155.2,401.5 			"/>
			<polygon class="st7" points="142,420.6 151,429.2 169.6,351.4 			"/>
		</g>
		<g>
			<polygon class="st3" points="182.3,419.5 234.8,420.5 233.2,355.1 183.4,354.3 179.8,403.5 			"/>
			<polygon class="st8" points="173.7,414.3 182.3,419.5 183.4,354.3 			"/>
			<path class="st3" d="M199.4,358.6c0-0.1,1.1-7.9,2.6-15.5c2.9-14.2,5.1-16,6.6-16s3.6,1.9,6.1,16.2c1.3,7.7,2.1,15.5,2.1,15.6
				l-1.4,0.1c-1.8-18.8-5-30.5-6.8-30.6c-1.8,0-5.4,11.5-7.8,30.3L199.4,358.6z"/>
		</g>
		<g>
			<polygon class="st9" points="165.2,388.3 204.3,404.2 222.1,354.8 185,339.7 171.3,366 			"/>
			<polygon class="st10" points="160.3,381.9 165.2,388.3 185,339.7 			"/>
			<path class="st3" d="M207.6,352.6c0-0.1,1.5-6.1,2.6-12.2c2-11.4,0.7-12.6,0.5-12.7c-1.4-0.6-7.1,7.1-13.9,20.4l-1-0.5
				c0-0.1,2.9-5.6,6.1-10.9c6-9.8,8.1-10.5,9.2-10c1.1,0.5,2.2,2.5,0.2,13.9c-1.1,6.1-2.6,12.2-2.6,12.3L207.6,352.6z"/>
		</g>
	</g>
	<g id="hand_2_">
		<path class="st5" d="M192.3,212.7c9.6,2.8,8.6,20.7-10.5,61.3l28.3,41.4l-11.4,10.2c0,0-32.5-28.8-36.4-45.6
			C158.5,263.1,174.7,207.7,192.3,212.7z"/>
		<polygon class="st1" points="207.7,317 212.4,324.8 207.7,328.5 201.6,322.9 		"/>
		<path class="st1" d="M215.8,333.4c-0.3-6.1-3.6-10.9-7.4-10.7c-1.1,0.1-2.1,0.5-3,1.3s-0.1,5.6,0.4,7.7c0.3,1.1,0.4,2.2,0.4,3.5
			c0,2.7-0.7,5-1.7,6.6c1.3,1.9,3.1,3.1,5,3C213.2,344.6,216.1,339.5,215.8,333.4z"/>
	</g>
</g>
</svg>
