<?xml version="1.0" encoding="utf-8"?>
<!-- Generator: Adobe Illustrator 24.0.0, SVG Export Plug-In . SVG Version: 6.00 Build 0)  -->
<svg version="1.1" id="Layer_1" xmlns="http://www.w3.org/2000/svg" xmlns:xlink="http://www.w3.org/1999/xlink" x="0px" y="0px"
	 viewBox="0 0 385 515" style="enable-background:new 0 0 385 515;" xml:space="preserve">
<style type="text/css">
	.st0{clip-path:url(#SVGID_2_);fill:#2F3C75;}
	.st1{clip-path:url(#SVGID_4_);fill:#2F3C75;}
	.st2{clip-path:url(#SVGID_6_);}
	.st3{fill:#A8A4F0;}
	.st4{fill:#FCF6F0;}
	.st5{fill:#4E5EAF;}
	.st6{fill:#3A4E84;}
	.st7{clip-path:url(#SVGID_8_);}
	.st8{fill:#D17575;}
	.st9{opacity:0.7;}
	.st10{fill:#E2857E;}
	.st11{fill:#FBF84A;}
</style>
<g>
	<g>
		<defs>
			<rect id="SVGID_1_" x="-1" y="1" width="387" height="517"/>
		</defs>
		<clipPath id="SVGID_2_">
			<use xlink:href="#SVGID_1_"  style="overflow:visible;"/>
		</clipPath>
		<path class="st0" d="M252.9,189.3c-25.8,7.6-94.9,35.6-113,39.5c-18,3.9-87.4,25.7-87,101c0.4,75.4-4.1,103.1,54.4,122.8
			c58.5,19.7,148.1-20.9,189.7-68.6c41.6-47.8,68.1-82.5,28.7-157.1C300.5,189.5,269.3,184.4,252.9,189.3z"/>
	</g>
	<g>
		<defs>
			<rect id="SVGID_3_" x="-1" y="1" width="387" height="517"/>
		</defs>
		<clipPath id="SVGID_4_">
			<use xlink:href="#SVGID_3_"  style="overflow:visible;"/>
		</clipPath>
		<ellipse class="st1" cx="277" cy="458.1" rx="90.7" ry="6.1"/>
	</g>
	<g>
		<defs>
			<rect id="SVGID_5_" x="-1" y="1" width="387" height="517"/>
		</defs>
		<clipPath id="SVGID_6_">
			<use xlink:href="#SVGID_5_"  style="overflow:visible;"/>
		</clipPath>
		<g class="st2">
			<g>
				<path class="st3" d="M273.3,268.3c23.8,0,43,19.3,43,43v49.8V410v19.7c0,16.4-13.3,29.6-29.6,29.6h-26.8
					c-16.3,0-29.6-13.3-29.6-29.6V410v-48.9v-49.8C230.2,287.6,249.5,268.3,273.3,268.3z"/>
				<rect x="230.2" y="319.4" class="st4" width="86.3" height="95.5"/>
				<rect x="242.6" y="330.5" class="st5" width="60.1" height="6.9"/>
				<rect x="242.6" y="343.1" class="st5" width="60.1" height="13.2"/>
			</g>
			<path class="st5" d="M286.3,231.5c0,0-26.5-12.4-59.9-0.9v6.3c0,0,17-6.6,33.7-2v18.8h26.2L286.3,231.5L286.3,231.5z"/>
			<path class="st6" d="M274.1,237.1v1.7h-14v-4c-7.5-2.1-15.1-1.9-21.2-1l0,0C238.9,233.8,258.2,229,274.1,237.1z"/>
			<rect x="255.4" y="252.7" class="st5" width="35.8" height="18.8"/>
			<path class="st5" d="M284.6,391.3c0,6.6-5.4,12-12,12s-12-5.4-12-12s12-27.6,12-27.6S284.6,384.7,284.6,391.3z"/>
		</g>
	</g>
	<g>
		<defs>
			<rect id="SVGID_7_" x="-1" y="1" width="387" height="517"/>
		</defs>
		<clipPath id="SVGID_8_">
			<use xlink:href="#SVGID_7_"  style="overflow:visible;"/>
		</clipPath>
		<g id="hand_36_" class="st7">
			<g>
				<g>
					
						<ellipse transform="matrix(0.9851 -0.1718 0.1718 0.9851 -65.8786 34.3967)" class="st8" cx="165.8" cy="397.8" rx="36.1" ry="11.3"/>
					<path class="st8" d="M171.6,401.8c0,0,14.8-15.2,15.9-16c1.2-0.7,9.2-17.4,17.5-14.6s-4.5,24.6-4.5,24.6l-21.1,7.9L171.6,401.8
						z"/>
					<path class="st8" d="M188.6,398.5l11.2-18c0,0,0.6-11.3,4-17.4c3.5-6.1,8.1-8.2,9.5-8.1c1.5,0.1,2,25.4,2,25.4l-14.5,21.7
						L188.6,398.5z"/>
					<path class="st8" d="M198.4,397.8l15.2-22.6c0,0,5.2-20.8,11.2-23.2c6-2.4,8.5,0.6,8.5,0.6l-5.6,26.7L198.4,397.8z"/>
					<g class="st9">
						<path class="st4" d="M207.7,338c-3.4-8.4-12.4-13.6-21.6-11.7c-6.4,1.3-11.2,5.8-13.7,11.3c-1.6,3.5-4,2.5-5.7,1.2
							c-3.6-2.6-8.2-3.8-12.8-2.8c-6,1.2-10.3,5.8-12.1,11.2c-1.2,3.7-4.7,3.1-5.1,2.9c-3-1.2-6.5-1.6-9.9-0.9
							c-9.2,1.9-15.2,10.9-13.2,20.2c1.9,9.2,10.9,15.2,20.2,13.2c1.7-0.4,3.4-1,4.8-1.8c3.5,7.4,11.8,11.8,20.2,10
							c2.5-0.5,7.1-2.2,10.7,2.8c5.5,7.5,15.8,10.5,25.6,8.5c13.4-2.8,23.2-15.1,21.4-28.4c-0.6-4.4,3.5-6,4.8-6.6
							c5.3-2.7,8.2-9.4,6.9-15.7c-1.5-7.3-8.3-11.8-15.6-11.2C209.9,340.5,208.4,339.7,207.7,338z"/>
						<circle class="st4" cx="180.1" cy="313.3" r="8.5"/>
						<circle class="st4" cx="142.4" cy="302.8" r="6.2"/>
					</g>
					<path class="st10" d="M-9.5,434.9l70.1-2.9c0,0,52.4-2.3,60.7-1.2c8.4,1.1,34.7-5.1,46.1-7.7c18.1-4.2,29.7-6.7,39.3-12
						c16.2-8.9,39.7-44.3,39.6-48c-0.1-3.9-10.4-1.1-14.7,2.6c-5.8,3.4-22,21.1-27.2,24.7c-5.5,3.7-32,8.5-36.9,8
						c-4-0.4-15.7-4.6-15.7-4.6l-5.8-11.3l19.9-9.8c0,0,31.5,0.8,32.2-6.8c0.9-10.3-21.3-10.2-29.1-10.3c-11.3-0.2-34.4-0.6-45.4,2
						c-16.2,3.8-61.1,25.3-61.1,25.3L-0.2,375L-9.5,434.9z"/>
				</g>
			</g>
			<path class="st11" d="M-49,365.7l98.1,1.2l5.4,92.4c0,0-35.8,5.7-103.5,15.8V365.7z"/>
		</g>
	</g>
</g>
</svg>
