<?xml version="1.0" encoding="utf-8"?>
<!-- Generator: Adobe Illustrator 24.0.0, SVG Export Plug-In . SVG Version: 6.00 Build 0)  -->
<svg version="1.1" id="Layer_1" xmlns="http://www.w3.org/2000/svg" xmlns:xlink="http://www.w3.org/1999/xlink" x="0px" y="0px"
	 viewBox="0 0 385 515" style="enable-background:new 0 0 385 515;" xml:space="preserve">
<style type="text/css">
	.st0{clip-path:url(#SVGID_2_);}
	.st1{fill:#F79800;}
	.st2{fill:#A8A4F0;}
	.st3{fill:#9A9AE2;}
	.st4{opacity:0.1;fill:#2D3B6B;enable-background:new    ;}
	.st5{fill:#3A6D09;}
	.st6{fill:#43840B;}
	.st7{fill:#4A990D;}
	.st8{fill:#2A3756;}
	.st9{opacity:0.6;fill:#151C28;enable-background:new    ;}
	.st10{fill:#89D83D;}
	.st11{fill:#FFFFFF;}
	.st12{opacity:0.5;fill:#222A35;enable-background:new    ;}
	.st13{fill:#E2857E;}
	.st14{fill:#EDEEEF;}
	.st15{fill:#D87E7C;}
	.st16{fill:#4E5EAF;}
	.st17{fill:#293657;}
</style>
<g>
	<g>
		<defs>
			<rect id="SVGID_1_" x="-2" width="388" height="516"/>
		</defs>
		<clipPath id="SVGID_2_">
			<use xlink:href="#SVGID_1_"  style="overflow:visible;"/>
		</clipPath>
		<g class="st0">
			<g>
				<g>
					<path class="st1" d="M245.8,286.6c-19.4-17,9.2-70-24.8-88.2c-32.9-17.7-67.9-21.2-90.5,4.6c-82.2,60-65.1,150.3-6.1,202
						c45.2,39.6,106,59.4,145.6,14.2c29.6-33.8,64.8-39.1,44.2-114.9C305.5,272.1,260.8,299.8,245.8,286.6z"/>
				</g>
				<g>
					<polygon class="st2" points="366,455.6 24,455.6 71.4,412.2 318.6,412.2 					"/>
					<rect x="24" y="455.6" class="st3" width="342" height="2.8"/>
				</g>
				<ellipse class="st4" cx="191" cy="433.8" rx="91.9" ry="8.6"/>
				<g>
					<g>
						<path class="st5" d="M351.4,309.1c0,0-27,3.3-44.9,27.4S291,371.9,291,371.9s5.8-5.9,16.5-6.4c7.8-0.3,4.8-10.2,7.7-12.8
							c2.9-2.6,9.3-2.1,11.7-6.3c2.5-4.2-0.3-3.9,3.5-8.9c3.3-4.5,8-0.7,10.5-7.7C342.2,326.1,343.3,315.6,351.4,309.1z"/>
						<path class="st6" d="M247.6,325c0,0,17.9,2.2,29.7,18.1c11.8,15.9,11.9,25.6,11.9,25.6s-7-5.6-12.5-6.4
							c-5.1-0.8-3.2-6.7-5.1-8.4c-1.9-1.7-6.1-1.4-7.7-4.1c-1.6-2.8,0.2-2.5-2.3-5.9c-2.2-3-5.3-0.4-6.9-5.1
							C253.7,336.2,253,329.3,247.6,325z"/>
						<path class="st7" d="M290.9,368.7c0,0-13.4-65.2,33.7-98.2c0,0-0.2,16.3,0.2,21.4c0.4,4.6-2,11-4.5,13.7s-6.3,6.5-7,9.5
							c-0.6,3,3.1,9.3,1.7,13.5s-5.2,5.2-6.7,8.9c-1.4,3.7-0.3,9.1-2.9,11.9c-2.6,2.9-7.5,4.5-9.6,8
							C293.7,361,290.9,368.7,290.9,368.7z"/>
						<rect x="266.3" y="367" class="st8" width="51.2" height="9"/>
						<path class="st8" d="M270.8,385.6c0,11.7,9.5,21.1,21.1,21.1l0,0c11.7,0,21.1-9.5,21.1-21.1v-14.1h-42.3L270.8,385.6
							L270.8,385.6z"/>
						<polygon class="st9" points="313.1,376 295.6,376 313.1,381.5 						"/>
						<polygon class="st10" points="295.9,308 323.5,300 323.9,298.9 296.3,306.9 						"/>
						<polygon class="st10" points="294.3,312.6 316,310.4 316.9,309.3 294.6,311.6 						"/>
						<polygon class="st10" points="289.2,344 307.8,339.8 308,338.7 289.2,343 						"/>
						<polygon class="st10" points="289.2,347.2 307.1,345.7 307.3,344.7 289.2,346.2 						"/>
						<polygon class="st10" points="311.1,282.5 324.6,278.9 324.6,277.9 312.3,281.2 						"/>
					</g>
					<g>
						<g>
							<path class="st7" d="M107.4,250.2c0,0-6.9-7.2-1.9-18s11.1-11,11.1-11s7.4,11.5,4.1,19.9
								C117.4,249.5,112.3,251.2,107.4,250.2z"/>
							<g>
								<path class="st6" d="M102.9,254.9c0,0,2.1-8.3-2.4-12.9c-4.4-4.7-14.1-8.8-14.1-8.8s-1.5,8.9,0.9,13.8
									C89.6,251.9,95.1,255.3,102.9,254.9z"/>
								<path class="st7" d="M106.1,261.3l0.2-1.2c-0.1-3.5-13.8-17.4-14.4-18l-0.2,0.2C91.8,242.5,105.9,258,106.1,261.3z"/>
							</g>
							<g>
								<path class="st6" d="M110.7,256.4c0,0,2.4-4.1,10.6-6.7c8.2-2.6,18.6,2.6,18.6,2.6s-5.6,6.2-10.2,8.9
									C125,264,115.2,259.7,110.7,256.4z"/>
								<path class="st7" d="M106.6,259.6c1.8-5.2,26.7-6.1,27-6.1v-0.3c-1,0-25.6,0.6-27.5,6L106.6,259.6z"/>
							</g>
							<g>
								<path class="st6" d="M111.6,274.4c4-3.5,9.5-1.7,12.1,3.3s1.3,14.5,1.3,14.5s-10.8-3.7-14.3-9.5
									C107.2,277,108.8,276.8,111.6,274.4z"/>
								<path class="st7" d="M121.5,285.6l0.2-0.1c0,0-2-3.4-4.5-6.7c-3.4-4.4-6.2-6.7-8.4-6.8c-1,0-1.9,0.5-2.5,1.5l0.2,1.7
									c0.6-0.9,1.3-2.2,2.2-2.2l0,0C113.5,273.2,121.4,285.5,121.5,285.6z"/>
							</g>
							<g>
								<path class="st7" d="M104.5,277.3c0,0-2.2-5-12.6-6.3s-15.2,7.4-15.2,7.4s10.8,6.7,16.3,6.3
									C98.5,284.3,102.2,280.6,104.5,277.3z"/>
								<path class="st6" d="M106.3,278.8l0.2-0.8c-3.3-3-20.1-0.3-20.9-0.2v0.3C85.9,278,103.1,275.9,106.3,278.8z"/>
							</g>
							<g>
								<path class="st5" d="M105.5,265.8c0,0-1.5-6.7-12.4-11c-11-4.3-16.7,1.9-16.7,1.9s6.3,10,13.7,11.7
									C97.5,270.1,105.5,265.8,105.5,265.8z"/>
								<path class="st7" d="M106.4,268.1l-0.1-1.5c-11.2-12.3-24.5-10.3-24.6-10.3v0.3C81.9,256.6,96.1,255.5,106.4,268.1z"/>
							</g>
							<path class="st6" d="M112.9,230.9c-1.6,5.4-6.3,21.6-6.5,31.2c-0.2,11,0.9,35.5,0.9,35.5l0.2,12.3h-4.6
								c0,0,2.3-17.8,2.6-24.3c0.3-6.5-0.2-19.4,0-23.4c0.2-3.7,3.7-22.8,7.1-31.1L112.9,230.9z"/>
						</g>
						<g id="plant_5_">
							<rect x="83.4" y="308.6" class="st8" width="43.2" height="7.6"/>
							<path class="st8" d="M87.2,324.3c0,9.8,8,17.8,17.8,17.8l0,0c9.8,0,17.8-8,17.8-17.8v-11.9H87.2V324.3z"/>
							<rect x="87.2" y="328.5" class="st11" width="35.7" height="1.4"/>
							<polygon class="st11" points="141.4,408.2 142.7,408.2 122.2,329 120.9,329.3 							"/>
							<polygon class="st11" points="68.7,408.2 89.3,329.3 87.9,329 67.4,408.2 							"/>
							<polygon class="st11" points="92.7,408.2 100.6,329.2 99.3,329.1 91.4,408.2 							"/>
							<polygon class="st12" points="122.8,316.2 108.1,316.2 122.8,320.9 							"/>
						</g>
					</g>
				</g>
			</g>
			<g>
				<g id="_x30_4_Front_4_">
					<path id="hair_6_" class="st11" d="M203,333c26.3-15.5,6.6-79.2,6.6-79.2s-26.9-7-29.9,0.1c-11.2,26.5-32.7,66-25.6,80.6
						C158.3,343.2,195.5,337.4,203,333z"/>
					<g>
						<path class="st11" d="M164.8,388.9h60.3l6.1,7.9c0,0,39.1-21.6,50.5,6.7c11.4,28.3-63.3,33.5-78.3,32.9
							c-3.5-0.1-7.8-0.1-12.7-0.1c-7.4,0-12.3-1.6-21.1-2.2c-5.1-0.4-14.1,0.7-19-0.2c-5.4-1-10.6-2.3-15.2-4.2
							c-21.3-8.4-39.7-22.2-19.5-38.5c11.9-9.6,43.4,5.5,43.4,5.5L164.8,388.9z"/>
						<polygon class="st13" points="197.4,416.6 197.4,426.7 227.7,412.2 						"/>
						<path class="st13" d="M190.7,436.4v-6.7l-40.1,4.2C150.6,433.8,177.4,436.4,190.7,436.4z"/>
						<polygon class="st14" points="162.7,398.1 197.4,416.6 227.7,398.1 						"/>
						<path class="st13" d="M271.5,382.4c0,0,5.3-0.8,6.1-1.1c0.8-0.3,2.3-1.2,5.3-1.3c3-0.1,7.6,0.6,7.6,0.6s-0.5,2.5-2.4,2.9
							s-5.4-0.1-5.7,0.8c-0.3,0.9,0.4,2.7,1.9,3.1s4.1,0.6,4.7,0c0.5-0.6-1.6-3-0.9-5.1s3.4,1.8,3.4,1.8s0.9,1.2,0.8,2.6
							s0,3.2,0,3.2s7.6,0.3,7.6,1.7c0,1.4-4.3,2.5-9.5,2.2s-20.1-2.1-21.6-4.4C267.1,387.1,271.5,382.4,271.5,382.4z"/>
						<path class="st13" d="M118.5,382.4c0,0-5.3-0.8-6.1-1.1c-0.8-0.3-2.3-1.2-5.3-1.3c-3-0.1-7.6,0.6-7.6,0.6s0.5,2.5,2.4,2.9
							s5.4-0.1,5.7,0.8c0.3,0.9-0.4,2.7-1.9,3.1s-4.1,0.6-4.7,0c-0.5-0.6,1.6-3,0.9-5.1s-3.4,1.8-3.4,1.8s-0.9,1.2-0.8,2.6
							s0,3.2,0,3.2s-7.6,0.3-7.6,1.7c0,1.4,4.3,2.5,9.5,2.2s20.1-2.1,21.6-4.4C122.9,387.1,118.5,382.4,118.5,382.4z"/>
						<path class="st8" d="M188.2,295.3c0,0-0.5,5.3,14-0.2c0,0,27.4,8,32.6,29s7.1,38.3,7.1,38.3l32,19.2c0,0-1.4,9.7-4,11.2
							c-7.8-2.2-30.1-6.5-41-19.3s-5.4-32-5.4-32l7.6,55.4c-39.1,15.5-72,1.2-72,1.2l7.3-58.6l4.1,35.2c0,0-26.7,17.5-51.3,18.4
							c-2-1.6-2.6-11.7-2.6-11.7s26.7-10.8,30.6-18.9C155.7,345.1,142.1,308.7,188.2,295.3z"/>
					</g>
					<g id="head_12_">
						<path id="hair_5_" class="st11" d="M179.3,267.4c0,0-1.8-10.1,1.4-16.3c4-7.8,16.1-12.1,25.5-3.8c6.5,5.8,3.1,21.1,3.1,21.1
							l-20.3-8.6L179.3,267.4z"/>
						<path class="st15" d="M202.6,296.3c0,0-9.2,4.7-15.2,0.2l1.3-15.6h12L202.6,296.3z"/>
						<g>
							<path class="st15" d="M181.9,265.6c0,0-1.7-1.1-3,0.7c-1.3,1.8-0.4,8.4,2.9,8.4C185,274.7,181.9,265.6,181.9,265.6z"/>
							<path class="st15" d="M207.5,265.6c0,0,1.7-1.1,3,0.7c1.3,1.8,0.4,8.4-2.9,8.4C204.4,274.7,207.5,265.6,207.5,265.6z"/>
							<path class="st13" d="M208.1,263.7c0-7.5-6-12.3-13.4-12.3s-13.4,4.9-13.4,12.3c0,0-0.6,9.5-0.6,10c0,7.1,8.7,16.1,14,16.1
								c6.2,0,14-10.7,14-16.1C208.7,273.2,208.1,263.7,208.1,263.7z"/>
						</g>
					</g>
				</g>
				<g>
					<path class="st16" d="M256.5,404.9v-1.6h-12.8v1.6c-1.8,0.4-3.2,2-3.2,4v33c0,2.3,1.8,4.1,4.1,4.1h11c2.3,0,4.1-1.8,4.1-4.1
						v-33C259.7,406.9,258.4,405.3,256.5,404.9z"/>
					<path class="st17" d="M257.4,403.5h-14.5v-7.4l16.5-3v1.8c0,0-5.5,0.5-5.5,2.6c0,1.4,3.5,2.1,3.5,2.1V403.5z"/>
				</g>
			</g>
			<g>
				<g id="plant_4_">
					<g>
						<path class="st6" d="M319,450.6c0,0-10.2-9.5-16-16.5s-16-16.5-16-16.5s9.4,2,19.5,9.9C316.5,435.4,319,450.6,319,450.6z"/>
						<path class="st6" d="M317.8,454c0,0-11.8-4.6-19.8-7.8c-7.9-3.3-21.8,0.9-21.8,0.9s10.2-8.7,22.1-6.6
							C310.2,442.5,317.8,454,317.8,454z"/>
						<path class="st6" d="M323.1,456.9c0,0,5.4-22.6,10.7-29.3c5.3-6.8,21.2-13.2,21.2-13.2s-9.6,7.4-16,17.7
							C332.7,442.4,323.1,456.9,323.1,456.9z"/>
						<path class="st6" d="M321.5,456.9c0,0-4.8-23.3-4.9-34.4s0.7-27.9,0.7-27.9s4.6,10.4,8.1,25.5
							C329,435.3,321.5,456.9,321.5,456.9z"/>
						<path class="st5" d="M324.7,461.8c-0.1-6.9,11-16.9,11-16.9l7.2-0.3C343,444.6,331.7,455.1,324.7,461.8z"/>
						<path class="st6" d="M355,464.1c-9.1-9.6-19.3-19.1-19.3-19.1l7.2-0.3C343,444.6,353.4,450.7,355,464.1z"/>
					</g>
					<g>
						<path class="st11" d="M341.8,453.9V452H300v1.9c0,8.2,4.7,15.3,11.6,18.7h18.6C337.1,469.1,341.8,462,341.8,453.9z"/>
					</g>
				</g>
				<g>
					<g id="Cheese_plant_3_">
						<g>
							<path class="st6" d="M76.9,467c6.4-25.2,2.9-48.1-1.2-59.7c-4.4-12.7-10.3-19.4-10.6-19.7l-1.8,1.6l0.9-0.8l-0.9,0.8
								c0.1,0.1,5.9,6.7,10.1,19c3.9,11.3,7,35.2-1,57.7L76.9,467z"/>
							<path class="st6" d="M89.1,436.3c0.5-15.1,2.9-33.2,13.1-38.9c6.8-3.8,13.3,2,13.3,2l2.2-4.9c-0.3-0.2-8.3-4.7-16.3-0.3
								c-9,5-14,19.1-14.8,42L89.1,436.3z"/>
							<g>
								<path class="st6" d="M85.4,408.7c0.7-1.3,1.4-2.6,2.1-4c8.2-17.4-11.5-35.1-22.8-18.7l0,0c-0.9,7.5-5.4,15.7-9.7,23.9
									c-5.1,9.7-10.9,17.5-19.1,22.2c4.4,1.4,9.4,2.2,14.8,1.7c1.1-3.8-1.2-13.5,2.2-13.1c3.5,0.4-0.4,10.4-1.5,13
									c3.9-0.4,7.9-1.4,11.8-3.2c0.5-4.5-7.7-15.9-3.4-17c4.7-1.2,4.2,15.5,4.2,16.6c3.7-1.8,6.1-3,9.6-6.3
									c0.4-10.2-12.1-18.7-7.1-21.2c5.6-2.8,9.3,19.1,9.3,19.1l0,0c3.2-3.2,6.2-7.1,8.9-11.8c-4.9-9-17.9-14.7-13.4-18.4
									C75.9,388,83.2,403.5,85.4,408.7z"/>
								<path class="st7" d="M64.7,386L64.7,386C64.7,386,64.6,386,64.7,386c-0.2-18.5-21.6-16.4-30.6,0.6c-1.1,2-1.8,4.1-2.4,6.1
									c4.1-1.7,19.7-7.5,20.3-2.1c0.6,5.3-12.6,1.4-21,5.2c-1,4.1-0.8,6.3-0.5,10.3c3.9-3.2,13.5-9,15.1-5.6
									c1.6,3.5-8.1,2.9-14.9,7.7c0.3,2.8,0.6,4.8,1.2,7.4c3.4-2.8,10.2-7.8,11.6-4.8s-6.4,4.9-10.7,6.8c1.4,6.3,2.6,10.9,2.9,14.4
									c0.1,0,0.2,0.1,0.3,0.1c8.1-4.7,14-12.5,19.1-22.2C59.2,401.7,63.7,393.5,64.7,386z M49.3,384.2c-1.2-3.4,5.2-7,7.3-4.1
									C61.1,386.3,50.5,387.6,49.3,384.2z"/>
							</g>
							<path class="st6" d="M117.6,393.4C117.6,393.4,117.6,393.3,117.6,393.4L117.6,393.4c-12.4-4.6-16.6,10.3-7.4,20.6
								c1.1,1.2,2.2,2.3,3.5,3.2c-0.1-3.2,0-15.1,3.8-14.1c3.7,1-2.3,8.8-1.9,15.4c2.5,1.7,4.1,2.1,6.8,3
								c-1.1-3.4-2.6-11.4,0.1-11.6s-0.1,6.2,1.3,12c1.9,0.5,3.4,0.8,5.3,1.1c-1-3-2.6-8.8-0.3-9c2.3-0.2,1.6,5.5,1.8,8.9
								c4.6,0.7,8,1,10.4,1.8c0.1-0.1,0.1-0.1,0.2-0.2c-1.1-6.7-4.8-12.6-10-18.5C126.8,401,122.4,395.9,117.6,393.4z"/>
						</g>
					</g>
					<path class="st11" d="M59.3,466.2c0,7.7,4.5,14.4,11,17.6h17.2c6.5-3.2,11-9.9,11-17.6c0-4.2-3.6-16.7-3.6-16.7h-32
						C62.9,449.4,59.3,462,59.3,466.2z"/>
					<g>
						<path class="st6" d="M113.9,437c-0.3-1-0.6-2-1-3.1c-4.6-13-23.6-12-21.1,2.1l0,0c3.3,4.3,5.2,10.7,7.2,17.1
							c2.3,7.5,3.3,14.4,1.6,21c2.9-1.5,5.9-3.7,8.4-6.6c-1.3-2.5-7.4-6.3-5.5-7.8c2-1.6,5.1,5.4,5.9,7.4c1.8-2.2,3.3-4.7,4.4-7.6
							c-2-2.5-11.9-4.2-10.3-6.9c1.8-3,10,5.7,10.5,6.3c1-2.8,1.6-4.6,1.6-8.1c-5-5.4-15.6-3.4-14.3-7.2c1.4-4.2,14.4,5,14.4,5l0,0
							c0-3.2-0.4-6.7-1.4-10.5c-7-2.1-16.6,1.6-16.1-2.6C98.5,431.3,110.1,435.6,113.9,437z"/>
						<path class="st5" d="M91.8,436L91.8,436L91.8,436c-9.5-9.3-19.3,2.6-15.2,15.8c0.5,1.6,1.1,3,1.9,4.3
							c1.3-2.9,6.2-13.8,9.3-11.3c3,2.4-5.7,7.1-8.1,13.3c1.6,2.6,2.8,3.6,5,5.5c0.4-3.6,2.3-11.4,4.8-10.5
							c2.6,0.9-2.6,5.6-3.7,11.5c1.5,1.3,2.8,2.1,4.4,3.2c0.3-3.1,1.2-9.1,3.4-8.3c2.2,0.8-0.8,5.7-2,8.9c3.9,2.5,6.8,4.2,8.8,5.9
							c0.1,0,0.1-0.1,0.2-0.1c1.7-6.5,0.8-13.4-1.6-21C97,446.8,95.1,440.3,91.8,436z"/>
					</g>
				</g>
			</g>
		</g>
	</g>
</g>
</svg>
