<?xml version="1.0" encoding="utf-8"?>
<!-- Generator: Adobe Illustrator 24.0.0, SVG Export Plug-In . SVG Version: 6.00 Build 0)  -->
<svg version="1.1" id="Layer_1" xmlns="http://www.w3.org/2000/svg" xmlns:xlink="http://www.w3.org/1999/xlink" x="0px" y="0px"
	 viewBox="0 0 385 515" style="enable-background:new 0 0 385 515;" xml:space="preserve">
<style type="text/css">
	.st0{clip-path:url(#SVGID_4_);fill:#2F3C75;}
	.st1{clip-path:url(#SVGID_6_);fill:#D17878;}
	.st2{clip-path:url(#SVGID_8_);}
	.st3{fill:#FFFFFF;}
	.st4{fill:#CACBCC;}
	.st5{fill:#EAEAEA;}
	.st6{fill:#DBDBDB;}
	.st7{clip-path:url(#SVGID_10_);fill:none;stroke:#FFFFFF;stroke-width:10;stroke-miterlimit:10;}
	.st8{clip-path:url(#SVGID_12_);fill:#E2857E;}
	.st9{clip-path:url(#SVGID_14_);fill:#FCF75A;}
</style>
<g>
	<g>
		<defs>
			<rect id="SVGID_1_" x="-1" y="1" width="387" height="517"/>
		</defs>
		<clipPath id="SVGID_2_">
			<use xlink:href="#SVGID_1_"  style="overflow:visible;"/>
		</clipPath>
	</g>
	<g>
		<defs>
			<rect id="SVGID_3_" x="-1" y="1" width="387" height="517"/>
		</defs>
		<clipPath id="SVGID_4_">
			<use xlink:href="#SVGID_3_"  style="overflow:visible;"/>
		</clipPath>
		<path class="st0" d="M46.1,301.6c19.7-19.8,79.4-69.5,91.9-84.1s66.6-67.4,135.5-29.9s96.6,47.1,85.7,110.4
			c-10.8,63.3-92.1,125.5-156.4,140S93.6,459.8,44.7,386.8C22.9,345.3,33.5,314.2,46.1,301.6z"/>
	</g>
	<g>
		<defs>
			<rect id="SVGID_5_" x="-1" y="1" width="387" height="517"/>
		</defs>
		<clipPath id="SVGID_6_">
			<use xlink:href="#SVGID_5_"  style="overflow:visible;"/>
		</clipPath>
		<path class="st1" d="M232,247.4L194.8,336c0,0,22.9-6.2,30.8-12.3c9.7-7.5,27.6-26.2,31.2-38.5c3.7-12.2-23.9-35.7-23.9-35.7
			s39,18.6,41.9,7.7c1.9-7.3-29.1-32.8-34.7-35.2c-4.1-1.8-24.7-1.7-34.9-1.5c-3.5,0.1-8.3,1.4-12.1,3.7
			c-10.2,5.9-29.7,18.4-37.3,30.5c-10.4,16.6-21,44.8-31.2,59.7C114.5,329.2,94,365.9,94,365.9l42.9,20.9l87.6-147.2L232,247.4z"/>
	</g>
	<g>
		<defs>
			<rect id="SVGID_7_" x="-1" y="1" width="387" height="517"/>
		</defs>
		<clipPath id="SVGID_8_">
			<use xlink:href="#SVGID_7_"  style="overflow:visible;"/>
		</clipPath>
		<g class="st2">
			<path class="st3" d="M196.6,309.7c16.1-36.2,39.3-84.2,39.6-84.9l-5.9-2.9c-1.3,2.7-24.7,50.8-39.7,85.1L196.6,309.7z"/>
			<path class="st4" d="M242.4,182.9c-0.5,1.2,0,2.5,1.2,3.1l10.2,4.5c1.2,0.5,2.5,0,3.1-1.2l6.8-15.5c0.5-1.2,0-2.5-1.2-3.1
				l-10.2-4.5c-1.2-0.5-2.5,0-3.1,1.2L242.4,182.9z"/>
			<path class="st3" d="M228.9,209.2l17.9,7.8l12.4-28.3c0.5-1.2,0-2.5-1.2-3.1l-13.6-5.9c-1.2-0.5-2.5,0-3.1,1.2L228.9,209.2z"/>
			
				<rect x="219.6" y="218.4" transform="matrix(0.4006 -0.9163 0.9163 0.4006 -64.7351 347.6055)" class="st3" width="27.4" height="9.7"/>
			<path class="st5" d="M249.3,171.5c-0.5,1.2,0,2.5,1.2,3.1l7,3.1c1.2,0.5,2.5,0,3.1-1.2l0.9-2.1c0.5-1.2,0-2.5-1.2-3.1l-7-3.1
				c-1.2-0.5-2.5,0-3.1,1.2L249.3,171.5z"/>
			
				<rect x="235.7" y="209.6" transform="matrix(0.4006 -0.9162 0.9162 0.4006 -54.3062 345.8671)" class="st6" width="3" height="9.7"/>
		</g>
	</g>
	<g>
		<defs>
			<rect id="SVGID_9_" x="-1" y="1" width="387" height="517"/>
		</defs>
		<clipPath id="SVGID_10_">
			<use xlink:href="#SVGID_9_"  style="overflow:visible;"/>
		</clipPath>
		<path class="st7" d="M205.6,286.6c0,0-51.3,292-154.2,381.4"/>
	</g>
	<g>
		<defs>
			<rect id="SVGID_11_" x="-1" y="1" width="387" height="517"/>
		</defs>
		<clipPath id="SVGID_12_">
			<use xlink:href="#SVGID_11_"  style="overflow:visible;"/>
		</clipPath>
		<path class="st8" d="M145,313.3c0,0,31.4-25.7,39.1-31.7c7.7-6.1,31-58.8,43.2-53.3s12.5,24.7-8.7,64.2
			c-21.1,39.5-16.6,71.3-41.7,83.4c-25.1,12.1-60,42.7-60,42.7l0,0c-10.7,13-29.8,35.6-53.8,61.5H0v-47.2L145,313.3z"/>
	</g>
	<g>
		<defs>
			<rect id="SVGID_13_" x="-1" y="1" width="387" height="517"/>
		</defs>
		<clipPath id="SVGID_14_">
			<use xlink:href="#SVGID_13_"  style="overflow:visible;"/>
		</clipPath>
		<polygon class="st9" points="79.8,348.2 123.7,423.3 0,555 0,480 0,397.9 		"/>
	</g>
</g>
</svg>
