<?xml version="1.0" encoding="utf-8"?>
<!-- Generator: Adobe Illustrator 24.0.0, SVG Export Plug-In . SVG Version: 6.00 Build 0)  -->
<svg version="1.1" id="Layer_1" xmlns="http://www.w3.org/2000/svg" xmlns:xlink="http://www.w3.org/1999/xlink" x="0px" y="0px"
	 viewBox="0 0 385 515" style="enable-background:new 0 0 385 515;" xml:space="preserve">
<style type="text/css">
	.st0{opacity:0.1;clip-path:url(#SVGID_6_);fill:#2A3756;enable-background:new    ;}
	.st1{clip-path:url(#SVGID_8_);}
	.st2{fill:#8E5D69;}
	.st3{fill:#4E5EAF;}
	.st4{fill:#6E5E8C;}
	.st5{fill:#AF5D46;}
	.st6{fill:#EF5C00;}
	.st7{fill:#CF5C23;}
	.st8{fill:#FFFFFF;}
	.st9{fill:#2A3756;}
	.st10{clip-path:url(#SVGID_10_);}
	.st11{fill:#151C28;}
	.st12{fill:#2F3D5B;}
</style>
<g>
	<g>
		<defs>
			<rect id="SVGID_1_" y="-1" width="387" height="517"/>
		</defs>
		<clipPath id="SVGID_2_">
			<use xlink:href="#SVGID_1_"  style="overflow:visible;"/>
		</clipPath>
	</g>
	<g>
		<defs>
			<rect id="SVGID_3_" y="-1" width="387" height="517"/>
		</defs>
		<clipPath id="SVGID_4_">
			<use xlink:href="#SVGID_3_"  style="overflow:visible;"/>
		</clipPath>
	</g>
	<g>
		<defs>
			<rect id="SVGID_5_" y="-1" width="387" height="517"/>
		</defs>
		<clipPath id="SVGID_6_">
			<use xlink:href="#SVGID_5_"  style="overflow:visible;"/>
		</clipPath>
		<path class="st0" d="M179.9,474c0,4.2-49.3,7.6-93.6,7.6s-66.8-3.4-66.8-7.6s22.5-7.6,66.8-7.6S179.9,469.8,179.9,474z"/>
	</g>
	<g>
		<defs>
			<rect id="SVGID_7_" y="-1" width="387" height="517"/>
		</defs>
		<clipPath id="SVGID_8_">
			<use xlink:href="#SVGID_7_"  style="overflow:visible;"/>
		</clipPath>
		<g class="st1">
			<g>
				<g>
					<path class="st2" d="M247.8,271.9l16.1-24.4l-16.1-19.2c-26.8,0-51.9,7.2-73.5,19.7l21.8,37.7C211.3,277,229,272,247.8,271.9z"
						/>
					<path class="st3" d="M100.9,375.2h43.3c0.1-18.8,5.1-36.4,13.9-51.5L120.5,302C108.1,323.5,100.9,348.5,100.9,375.2z"/>
					<path class="st4" d="M196.1,285.8l-21.8-37.7C152,261,133.4,279.6,120.5,302l37.6,21.7C167.3,308,180.4,294.9,196.1,285.8z"/>
				</g>
				<g>
					<path class="st5" d="M247.8,271.9v-43.6c26.8,0,51.9,7.2,73.5,19.7l-21.8,37.7C284.3,277,266.7,272,247.8,271.9z"/>
					<path class="st6" d="M394.7,375.2h-43.3c-0.1-18.8-5.1-36.4-13.9-51.5l37.6-21.7C387.5,323.5,394.7,348.5,394.7,375.2z"/>
					<path class="st7" d="M299.5,285.8l21.8-37.7c22.3,12.9,40.9,31.5,53.8,53.9l-37.6,21.7C328.3,308,315.2,294.9,299.5,285.8z"/>
					<path class="st8" d="M319.2,334.2c-7.3-12.5-17.7-22.9-30.2-30.2c-12.1-7-26-11-40.9-11.1c-0.1,0-0.5,0-0.6,0
						c-14.9,0.1-28.9,4.1-41,11.1c-12.5,7.2-23,17.7-30.2,30.2c-7,12.1-11,26.1-11.1,41h165.1C330.3,360.3,326.2,346.3,319.2,334.2z
						"/>
				</g>
			</g>
			<g>
				
					<ellipse transform="matrix(0.1602 -0.9871 0.9871 0.1602 -159.5833 557.4324)" class="st9" cx="247.8" cy="372.5" rx="12.5" ry="12.5"/>
				<polygon class="st9" points="240.9,378.4 244.7,364.4 293.8,329.4 255.2,375.7 				"/>
			</g>
		</g>
	</g>
	<g>
		<defs>
			<rect id="SVGID_9_" y="-1" width="387" height="517"/>
		</defs>
		<clipPath id="SVGID_10_">
			<use xlink:href="#SVGID_9_"  style="overflow:visible;"/>
		</clipPath>
		<g id="_x30_4_3_x2F_4" class="st10">
			<g>
				<circle class="st11" cx="62.2" cy="205.7" r="35.7"/>
				<path id="head_2_" class="st12" d="M83.2,206.2c5.8-1.5,13.9-0.3,15.5,9.5c1.2,6.8,2.6,18.7-1.8,20.2c-1.9,0.7-9.2,0-9.2,0
					l2.1,11l-14-2.9l2.2-11.6C78,232.4,64,211.1,83.2,206.2z"/>
				<path id="hair_14_" class="st11" d="M71.9,205.7L71.9,205.7c-11.1,13.9-0.4,24.1,6.2,26.7c2.3-2,4-5.4,4-5.4
					c0.3-1-3.1-3.5-1.6-6.4c1.1-2,2.9-2.9,4.4-1.3c0.3,0.3,0.8,0.1,0.6-1.2c-0.3-2-0.6-5,1.5-8c2.2-3,4.4-4.5,7.4-2.7
					C91.2,201.5,77,201,71.9,205.7z"/>
				<path class="st8" d="M82.7,229.6c-1.5,0-2.7-1.2-2.7-2.7h0.6c0,1.1,0.9,2.1,2.1,2.1c1.1,0,2.1-0.9,2.1-2.1
					c0-1.1-0.9-2.1-2.1-2.1v-0.6c1.5,0,2.7,1.2,2.7,2.7C85.4,228.4,84.2,229.6,82.7,229.6z"/>
			</g>
			<g id="_x30_4_Standing_1_">
				<g id="leg_57_">
					<polygon class="st8" points="124.1,473.3 96.5,474.2 97.2,464.6 108.8,461.4 124.1,468.6 					"/>
					<path class="st12" d="M105.9,398.3c0.2-9.6,2.2-38.5,2.2-38.5S81.5,304.2,76,317.5c0,0,18.5,64.8,19.1,70.3s-4.1,16.1-1,35.2
						c1.5,9.5,4.9,41.1,4.9,41.1l8.1-2.2C107,461.9,105.8,405.1,105.9,398.3z"/>
				</g>
			</g>
			<path class="st6" d="M58.5,253.8c0,0-17.8,38.8-13.8,50.5c5.1,15.2,23.5,19.4,23.5,19.4L58.5,253.8z"/>
			<g id="_x30_4_Front_2_">
				<g id="leg_55_">
					<path class="st12" d="M58.5,337.2c0,0,3.3,22.3,4.4,51.3c1,25.4-4.4,25.5,0.2,61.2l0.6,13.2l7.3,3.6c0,0,1.7-40.2,11.3-135.3
						C82.3,331.1,63.8,323.8,58.5,337.2z"/>
					<polygon class="st8" points="73.7,475.3 60.5,475.3 60.5,471.7 62.9,461.6 71.4,461.6 73.7,471.7 					"/>
				</g>
				<g id="hand_42_">
					<polygon class="st12" points="117.6,344.9 119.6,352.1 124.5,351.4 124.6,344.6 					"/>
					<path class="st6" d="M99.1,245.7c0,0,18.3,7.2,22.4,56.2c2.7,32.5,5.4,45.2,5.4,45.2l-9.3,0.1c0,0-18.2-45.5-19.9-65.7
						C96.8,272,99.1,245.7,99.1,245.7z"/>
					<path class="st12" d="M127.6,357.6c-0.2-5-3-8.9-6.1-8.8c-0.9,0-1.7,0.4-2.5,1.1c-0.7,0.6-0.1,4.6,0.3,6.3
						c0.2,0.9,0.3,1.8,0.3,2.9c0,2.2-0.6,4.1-1.4,5.4c1.1,1.6,2.6,2.5,4.1,2.5C125.5,366.8,127.9,362.6,127.6,357.6z"/>
				</g>
				<path id="dress_8_" class="st6" d="M77.2,242.2c-6,0.4-16.9,5.4-18.7,11.6c-1.2,8.5,5.1,28.4,0,56.1
					c-4.1,38.9-3.6,84.5-3.6,84.5l56.9,0.4c0,0,0.7-42.7-5.1-81.3c-4-26.1-0.7-51.9-4.3-63.7c-1.7-5.6-9.4-6.6-13.2-7.4
					C88.6,242.4,82.3,241.9,77.2,242.2z"/>
			</g>
		</g>
	</g>
</g>
</svg>
