<?xml version="1.0" encoding="utf-8"?>
<!-- Generator: Adobe Illustrator 24.0.0, SVG Export Plug-In . SVG Version: 6.00 Build 0)  -->
<svg version="1.1" id="Layer_1" xmlns="http://www.w3.org/2000/svg" xmlns:xlink="http://www.w3.org/1999/xlink" x="0px" y="0px"
	 viewBox="0 0 385 515" style="enable-background:new 0 0 385 515;" xml:space="preserve">
<style type="text/css">
	.st0{fill:#F79800;}
	.st1{fill:#FFFFFF;}
	.st2{fill:#E2857E;}
	.st3{opacity:0.4;fill:#FCE544;enable-background:new    ;}
	.st4{fill:#EDD600;}
	.st5{fill:#212D44;}
	.st6{fill:#2A3756;}
	.st7{fill:#D37976;}
</style>
<g>
	<path class="st0" d="M53.7,395.5C24,338.2,36.6,216.6,98.8,170.8s238.3-37.5,249.6,12.4c18.9,83.6-60.4,159.5-126.2,207.3
		C156.4,438.4,95.2,475.6,53.7,395.5z"/>
</g>
<ellipse class="st0" cx="195.8" cy="476.8" rx="142.1" ry="7.5"/>
<g id="_x30_4_Front">
	<path id="hair_3_" class="st1" d="M202.8,248.9c20.5-14,1-64.5,1-64.5s-22.2-4.2-24.2,1.7c-7.6,22.1-22.9,55.2-16.3,66.6
		C167.3,259.6,197,252.8,202.8,248.9z"/>
	<g id="leg_39_">
		<path class="st2" d="M167,323.3c0,0,3.6,24.5,4.8,56.3c1.1,27.9-4.8,28,0.2,67.2l0.7,14.5l8.1,3.9c0,0,1.9-44.1,12.4-148.7
			C193.2,316.6,172.9,308.7,167,323.3z"/>
		<polygon class="st1" points="183.7,475.1 169.2,475.1 169.2,471.1 171.8,460 181.2,460 183.7,471.1 		"/>
	</g>
	<g id="leg_38_">
		<path class="st2" d="M217.1,379.7c1.2-31.8,4.8-56.3,4.8-56.3c-5.9-14.7-26.1-6.7-26.1-6.7c10.5,104.6,12.4,148.7,12.4,148.7
			l8-2.4l0.7-16.1C221.9,407.7,216,407.5,217.1,379.7z"/>
		<polygon class="st1" points="205.2,475.1 219.7,475.1 219.7,471.1 217.1,460 207.7,460 205.2,471.1 		"/>
	</g>
	<g>
		<path class="st2" d="M233.7,234c-0.4,0.1-0.3,7.9-0.4,8.8c0,0.8,2.5,10.6,2.5,10.6s2.8,2.6,4.2,0.7s3.9-10.4,3.9-10.8
			c-0.1-0.5-0.3-4.1-0.3-4.1s-0.5-1.3-1.3-0.5c0.1,0.1,0.4-2.4-0.7-2.8c-0.8-0.2-1.2,1.7-1.2,1.7s0.1-2.3-0.8-2.6
			c-0.9-0.3-1.3,2-1.3,2s-0.3-8.3-1.2-8.2c-1.4,0.1-1.4,12-1.4,12S235.2,233.7,233.7,234z"/>
		<g>
			<g id="Lamp_2_">
				<path class="st3" d="M256.2,202H231c0,0-5.1-21-5.1-25.2c0-9.9,8-17.9,17.9-17.9s17.9,8,17.9,17.9
					C261.5,180.5,256.2,202,256.2,202z"/>
				<path class="st4" d="M246.6,173.6c0.2,1.8-0.6,4.3-1.9,6.4c0.7,1,1.5,1.7,2.4,2c0.6-3.9,1.6-7.1,3.3-8.4c1-0.8,2.2-1,3.4-0.4
					c1.4,0.6,1.9,2.2,1.4,4.3c-0.6,2.6-3,6.2-6.3,6.7c-0.6,5.5-0.5,12.6,0.7,19.3l-2,0.3c-0.9-5-1.4-13.1-0.7-19.8
					c-1.2-0.3-2.3-1.1-3.3-2.3c-0.9,1.2-2,2.1-3.1,2.4c0.6,8.1-0.1,18-0.2,19.6l-2-0.2c0-0.1,0.5-6.2,0.5-12.8
					c0-2.6-0.1-4.8-0.2-6.7c-1.3-0.4-2.7-1.4-3.9-3c-1.4-1.8-2.8-4.6-1.9-6.5c0.3-0.6,0.9-1.5,2.7-1.7c0.9-0.1,1.7,0.3,2.4,0.9
					c1.4,1.4,2.2,4.5,2.6,8.2c0.7-0.3,1.4-1.1,2.1-2.1c-1.1-2-1.8-4.2-1.7-6c0.1-2.1,1.2-3.3,3-3.3
					C245.3,170.7,246.4,171.8,246.6,173.6z M244.6,173.8c-0.1-1-0.6-1.1-1-1.1c-0.3,0-0.9,0-1,1.4c0,1.1,0.3,2.5,0.9,3.9
					C244.2,176.5,244.7,174.9,244.6,173.8z M236.1,175.2c-0.3-0.3-0.6-0.4-0.8-0.4c-0.8,0.1-0.9,0.4-1,0.5c-0.3,0.8,0.2,2.6,1.7,4.5
					c0.7,0.9,1.4,1.6,2.1,2C237.6,177.5,236.7,175.8,236.1,175.2z M253.2,177.1c0.2-1,0.2-1.8-0.2-2c-0.6-0.2-1-0.2-1.4,0.2
					c-1,0.8-1.9,3.4-2.5,6.8C251.2,181.4,252.8,178.9,253.2,177.1z"/>
				<path class="st5" d="M230.9,201.9l1.1,9.2c0,3.6,2.9,6.7,6.5,6.7h0.3v1.4c0,1.8,1.6,3,3.4,3h3c1.8,0,3.6-1.2,3.6-3v-1.7
					c2.8-0.1,6.5-2.8,6.5-6.3l0.9-9.3L230.9,201.9L230.9,201.9z"/>
			</g>
		</g>
		<g>
			<path class="st2" d="M154.2,330.8c0,0,2.5,0.5,2.9,3.9c0.5,4.5,0.8,13.7,0.7,14c-1,1.5-3.2-7.4-3.2-7.4s-0.2,3.7,0.3,5.8
				c0.6,2.1,4.1,4.1,4.4,5.3c0.2,1.2-0.2,1.2-0.9,1s-5.8-2.9-6.3-4.2c-0.6-1.3-2.2-4.8-2.3-7s2.1-10.1,1.6-11.4
				C150.7,329.3,154.2,330.8,154.2,330.8z"/>
			<path class="st6" d="M241.6,253.9l-7.8-1.7l-4.3,15.6c0,0-4.9-31.9-9.9-37.1c-6.2-6.4-16.7-10.9-20.2-11.7
				c-4.2-1.8-6.2-0.3-11.8,0c-6.5,0.4-18.5,7.2-22.3,12.6c-6.7,9.6-11.4,23.1-13.8,58.2c-2,28.1-2.5,43.4-2.5,43.4l9.2,1.4l11-37
				c-7.7,42.6-6.1,88.5-6.1,88.5l62.5,0.5c0,0,0.8-46.4-5.5-88.7c2.9,2.2,6.4,3.5,10.5,2.5C243.3,297.3,241.6,253.9,241.6,253.9z"/>
		</g>
	</g>
	<g id="head_18_">
		<path id="hair_4_" class="st1" d="M180.1,197c0,0-2-8,0.2-13.2c2.8-6.5,12.4-10.7,20.4-4.5c5.6,4.3,3.6,16.9,3.6,16.9l-16.9-5.9
			L180.1,197z"/>
		<path class="st7" d="M199.4,219c0,0-6.9,3.7-11.8,0l1-12.7h9.7L199.4,219z"/>
		<g>
			<path class="st2" d="M203.2,192.5c-0.4-6-5.5-9.6-11.6-9.2c-6,0.4-10.6,4.7-10.2,10.7c0,0,0,7.7,0.1,8.1
				c0.4,5.7,7.9,12.5,12.2,12.2c5-0.3,10.8-9.4,10.5-13.8C204.2,200.2,203.2,192.5,203.2,192.5z"/>
			<path class="st2" d="M182.1,195.5c0,0-1.5-0.8-2.4,0.7c-1,1.5,0.1,6.8,2.8,6.6C185.1,202.6,182.1,195.5,182.1,195.5z"/>
			<path class="st2" d="M202.9,194.1c0,0,1.3-1,2.5,0.4s0.8,6.8-1.9,7C200.8,201.6,202.9,194.1,202.9,194.1z"/>
		</g>
	</g>
</g>
</svg>
