<?xml version="1.0" encoding="utf-8"?>
<!-- Generator: Adobe Illustrator 24.0.0, SVG Export Plug-In . SVG Version: 6.00 Build 0)  -->
<svg version="1.1" id="Layer_1" xmlns="http://www.w3.org/2000/svg" xmlns:xlink="http://www.w3.org/1999/xlink" x="0px" y="0px"
	 viewBox="0 0 385 515" style="enable-background:new 0 0 385 515;" xml:space="preserve">
<style type="text/css">
	.st0{fill:#2F3C75;}
	.st1{fill:#E3847C;}
	.st2{fill:#293657;}
	.st3{fill:#DE5000;}
	.st4{fill:#FFFFFF;}
	.st5{fill:#F05C00;}
	.st6{fill:#5351B7;}
	.st7{fill:#667CC9;}
	.st8{opacity:0.3;fill:#D0C7C4;enable-background:new    ;}
	.st9{fill:#F3F3F3;}
	.st10{fill:#D0C7C4;}
	.st11{opacity:0.4;fill:#D0C7C4;enable-background:new    ;}
	.st12{opacity:0.4;}
	.st13{fill:#EDD700;}
	.st14{opacity:0.1;}
	.st15{opacity:0.1;fill:#373737;enable-background:new    ;}
	.st16{fill:#4D5CB0;}
</style>
<ellipse class="st0" cx="195.9" cy="456.3" rx="138.8" ry="6.4"/>
<g id="_x30_2_Standing">
	<g id="head_5_">
		<path class="st1" d="M131.8,183.2c6-0.5,13.6,2,13.6,11.9c0,6.9-0.6,18.8-5.1,19.5c-2,0.3-9-1.6-9-1.6l0.1,8.2l-13.1-2.3l4.1-11
			C122.3,208,112.1,184.7,131.8,183.2z"/>
		<path class="st2" d="M142.6,186.3l-10.8,11.2c-1-3.1-3.5-2.8-5.1-0.7c-2,2.6,1,5.6,0.5,6.5s-4.1,4.6-4.8,4.6
			c-0.8,0-13.9-9-4.5-24.2C122.1,176.8,135.5,176.4,142.6,186.3z"/>
		<path class="st2" d="M135.5,172.1c0.3,4.7-2.5,7.8-6.8,8.1s-6.4-2.7-6.7-7.4c-0.3-4.7,1.8-8.4,6.1-8.6
			C132.3,163.8,135.2,167.4,135.5,172.1z"/>
	</g>
	<g id="leg_11_">
		<path class="st3" d="M133.4,317.2c0,0-15,57.3-18.9,65.9c-2.6,5.8-10.8,28-15.3,45.1l-8.2-3.5c-1.1-8.5,0.9-18.2,4-28.7
			c6.6-22.2,10.3-29.8,11.3-47.6c0.9-17.9-6-36.6-2.8-46.7C106.7,291.7,133.4,317.2,133.4,317.2z"/>
		<g>
			<polygon class="st2" points="108.8,455.6 82.7,447.1 86.6,438.3 98.6,439.3 110.4,451.2 			"/>
			<polygon class="st4" points="87.5,438.4 96.7,439.2 98.1,432.1 89.8,429.8 			"/>
			<polygon class="st1" points="98.1,432.1 89.8,429.8 90.9,424.7 99.1,428.2 			"/>
		</g>
	</g>
	<g id="leg_10_">
		<path class="st5" d="M104.7,300.8c0,0,14.5,64.5,15.1,70s-3.1,16.1,0,35c1.5,9.5,3.7,19.5,5.5,27.2l8.9,0.4
			c0.5-16.5,1.2-45.4,1.3-52.2c0.2-9.5,7.3-66.7,7.3-66.7S110.1,287.6,104.7,300.8z"/>
		<g>
			<polygon class="st2" points="152.6,455.8 125.2,456.7 125.8,447.1 137.4,444 152.6,451.1 			"/>
			<polygon class="st4" points="126.6,446.9 135.6,444.5 134.5,437.4 125.9,438 			"/>
			<polygon class="st1" points="134.5,437.4 125.9,438 125.2,432.9 134.1,433.4 			"/>
		</g>
	</g>
	<g id="hoodie_5_">
		<path class="st4" d="M134,218.9l-41.2-10.1c0,0-8.4,26.1,12.4,27.3C125.9,237.3,134,218.9,134,218.9z"/>
		<path class="st4" d="M122.8,217.6c-5.9,0.4-11.4,6.5-15.2,17.7c-2.9,20.2-13.4,95.5-13.4,95.5l55.3-4.9c0,0-2.8-98.1-13.4-106.2
			C132.2,218,127.8,217.3,122.8,217.6z"/>
	</g>
	<g>
		<path class="st1" d="M165.2,293.5l3-0.8c0,0,3.2-2.8,4.4-3.1c1.1-0.4,3.5-0.4,4.6-0.2c0.8,0.2,3,1.4,3,1.4s0.4,1.7-3.4,0.6
			c-0.6-0.2-1.3,0.2-1.8,0.4c-0.8,0.3-1.3,0.6-1.3,0.6l7.3,1.9c0,0,5.3,1.8,5,2.9s-1.9,0.3-3.4,0s-3-0.5-3-0.5s7.3,1.8,6.8,3.4
			c-0.3,1.1-2.5,0.1-4.7-0.3c-2.4-0.5-4.8-0.8-4.8-0.8s1.4,0.8,3.2,1.4c2.2,0.7,5.2,1,4.9,2c-0.3,1.2-3.3,0.5-6-0.1
			c-2.2-0.5-4.1-1.4-4.1-1.4l3.8,2.1c0,0,3.1,0.3,2.9,1.3c-0.2,1.2-3.5,0.3-3.5,0.3l-6.5-2.3l-10-3.5L165.2,293.5z"/>
		<g id="laundry_1_">
			<path class="st6" d="M136.3,268.5c0,0,20.7-9.9,36.3-8.4c4.8,0.5,22.7,3.7,13.7,15.7C182,281.5,138.4,276.8,136.3,268.5z"/>
			<path class="st6" d="M182.3,274.7c-4.2-0.7-25.4,8.8-26.1,14.2c-0.6,5.4-6.3,17.8-2.4,19.5c3.9,1.7,19.6,2.2,21.1,0
				s14.4-23,12.3-32C186.9,274.9,182.3,274.7,182.3,274.7z"/>
			<path class="st4" d="M172.8,288.2c0,0-2.8,16.4-16.3,20.2c-13.8,1-32.4,1-34.5,0s-8.3-13.2-7.3-14.3c1-1.2,45.7-14.9,49.2-11.5
				C167.4,285.9,173.7,282.7,172.8,288.2z"/>
			<path class="st7" d="M110.8,274.6c0,0,0.3-9,13.8-9c14,0,31.9,6,34,9s-9.6,26.8-12,29.7c-1.4,1.7-20.3,1.9-29.6-5.7
				C109.9,292.9,111.6,276.5,110.8,274.6z"/>
			<path class="st2" d="M188.2,274.6v-1.2h-79.3v1.2c0,13.7,5.2,26.9,13.4,35.4h52.6C183,301.6,188.2,288.4,188.2,274.6z
				 M178.3,301.5H173c0.5-1,0.9-1.9,1.4-2.9h5.7C179.5,299.6,178.9,300.6,178.3,301.5z M167.5,295.8c0.3-1,0.6-1.9,0.8-2.9h6.1
				c-0.3,1-0.7,2-1.1,2.9H167.5z M172.2,298.6c-0.5,1-0.9,2-1.5,2.9h-5.1c0.4-1,0.7-1.9,1-2.9H172.2z M181.5,295.8h-6
				c0.4-1,0.7-1.9,1-2.9h6.2C182.4,293.9,182,294.9,181.5,295.8z M179.4,275.8h6.8c0,1-0.1,1.9-0.2,2.9h-6.8
				C179.4,277.7,179.4,276.8,179.4,275.8z M179,281.5h6.7c-0.1,1-0.3,2-0.5,2.9h-6.7C178.8,283.4,178.9,282.4,179,281.5z
				 M184.7,287.2c-0.3,1-0.5,2-0.9,2.9h-6.4c0.3-1,0.5-1.9,0.7-2.9H184.7z M170.7,275.8h6.8c0,0.9-0.1,1.9-0.1,2.9h-6.8
				C170.7,277.7,170.7,276.8,170.7,275.8z M170.4,281.5h6.7c-0.1,1-0.3,1.9-0.4,2.9H170C170.2,283.4,170.3,282.4,170.4,281.5z
				 M169.6,287.2h6.5c-0.2,1-0.5,1.9-0.7,2.9H169C169.2,289.1,169.4,288.2,169.6,287.2z M162.1,275.8h6.8c0,0.9-0.1,1.9-0.1,2.9H162
				C162,277.7,162,276.7,162.1,275.8z M161.8,281.5h6.7c-0.1,1-0.2,1.9-0.4,2.9h-6.6C161.6,283.4,161.7,282.4,161.8,281.5z
				 M161.2,287.2h6.4c-0.2,1-0.4,1.9-0.6,2.9h-6.2C160.9,289.1,161.1,288.1,161.2,287.2z M166.3,292.9c-0.3,1-0.5,2-0.8,2.9h-5.7
				c0.2-1,0.4-1.9,0.5-2.9H166.3z M164.6,298.6c-0.3,1-0.7,2-1.1,2.9h-4.9c0.2-1,0.5-1.9,0.7-2.9H164.6z M153.4,275.8h6.8
				c0,0.9,0,1.9-0.1,2.9h-6.7C153.3,277.7,153.4,276.7,153.4,275.8z M153.2,281.5h6.6c-0.1,1-0.2,1.9-0.3,2.9H153
				C153.1,283.4,153.2,282.4,153.2,281.5z M152.9,287.2h6.3c-0.1,1-0.3,1.9-0.4,2.9h-6.1C152.8,289.1,152.9,288.1,152.9,287.2z
				 M152.6,292.9h5.8c-0.2,1-0.4,2-0.5,2.9h-5.5C152.4,294.8,152.5,293.9,152.6,292.9z M151.4,275.8c0,0.9,0,1.9-0.1,2.9h-6.6
				c0-1,0-2-0.1-2.9H151.4z M143.9,295.8h-5.3c-0.2-1-0.4-1.9-0.5-2.9h5.6C143.7,293.9,143.8,294.8,143.9,295.8z M143.5,290.1h-5.9
				c-0.1-1-0.3-1.9-0.4-2.9h6.1C143.3,288.1,143.4,289.1,143.5,290.1z M137.8,301.5h-4.7c-0.4-0.9-0.7-1.9-1.1-2.9h5.1
				C137.4,299.6,137.6,300.6,137.8,301.5z M143.1,284.4h-6.3c-0.1-1-0.2-1.9-0.3-2.9h6.5C143,282.4,143.1,283.4,143.1,284.4z
				 M142.9,275.8c0,0.9,0,1.8,0.1,2.9h-6.5c0-1-0.1-1.9-0.1-2.9H142.9z M136.6,295.8h-5.5c-0.3-1-0.6-1.9-0.8-2.9h5.8
				C136.2,293.9,136.4,294.8,136.6,295.8z M129.9,298.6c0.3,1,0.7,2,1,2.9H126c-0.5-0.9-1-1.9-1.5-2.9H129.9z M123.4,295.8
				c-0.4-1-0.7-1.9-1.1-2.9h6c0.2,1,0.5,2,0.8,2.9H123.4z M135.6,290.1h-6c-0.2-1-0.4-1.9-0.6-2.9h6.2
				C135.4,288.1,135.5,289.1,135.6,290.1z M134.9,284.4h-6.4c-0.1-1-0.3-1.9-0.4-2.9h6.5C134.7,282.4,134.8,283.4,134.9,284.4z
				 M134.4,275.8c0,0.9,0.1,1.9,0.1,2.9h-6.6c-0.1-1-0.1-1.9-0.1-2.9H134.4z M127.6,290.1h-6.2c-0.3-1-0.5-1.9-0.7-2.9h6.3
				C127.2,288.2,127.4,289.1,127.6,290.1z M126.6,284.4h-6.4c-0.2-1-0.3-1.9-0.4-2.9h6.5C126.3,282.4,126.4,283.4,126.6,284.4z
				 M125.9,275.8c0,0.9,0.1,1.9,0.1,2.9h-6.6c-0.1-1-0.1-1.9-0.1-2.9H125.9z M110.8,275.8h6.6c0,0.9,0.1,1.9,0.1,2.9h-6.6
				C110.8,277.7,110.8,276.8,110.8,275.8z M111.2,281.5h6.5c0.1,1,0.3,1.9,0.4,2.9h-6.5C111.5,283.4,111.3,282.4,111.2,281.5z
				 M112.3,287.2h6.4c0.2,1,0.4,1.9,0.7,2.9h-6.2C112.9,289.1,112.6,288.2,112.3,287.2z M114.2,292.9h6.1c0.3,1,0.6,2,1,2.9h-5.8
				C115,294.9,114.6,293.9,114.2,292.9z M118.7,301.5c-0.6-0.9-1.2-1.9-1.8-2.9h5.5c0.4,1,0.9,2,1.4,2.9H118.7z M123.3,307.2
				c-0.9-0.9-1.7-1.9-2.5-2.9h4.5c0.4,0.6,0.8,1.3,1.2,1.9c0.2,0.4,0.5,0.7,0.7,1H123.3z M129.7,307.2c-0.6-0.8-1.2-1.6-1.7-2.5
				c-0.1-0.1-0.2-0.3-0.3-0.4h4.4c0.1,0.2,0.2,0.5,0.3,0.7c0.3,0.8,0.7,1.5,1,2.2L129.7,307.2L129.7,307.2z M135.8,307.2
				c-0.5-0.9-1-1.9-1.4-2.9h4.2c0.3,1,0.6,2,0.8,2.9H135.8z M139.1,298.6h4.9c0.1,1,0.2,1.9,0.3,2.9h-4.5
				C139.6,300.6,139.4,299.6,139.1,298.6z M141.5,307.2c-0.3-0.9-0.6-1.9-0.9-2.9h4c0.1,1,0.2,2,0.3,2.9H141.5z M149.4,307.2h-2.6
				c-0.1-0.9-0.2-1.9-0.3-2.9h3.2C149.6,305.3,149.5,306.3,149.4,307.2z M150,301.5h-3.7c0-0.2,0-0.3,0-0.5
				c-0.1-0.8-0.1-1.6-0.2-2.5h4.2C150.1,299.6,150,300.6,150,301.5z M150.4,295.8h-4.6c-0.1-1-0.1-2-0.2-2.9h5.1
				C150.6,293.9,150.5,294.8,150.4,295.8z M150.8,290.1h-5.5c-0.1-1-0.1-2-0.2-2.9h5.8C151,288.1,150.9,289.1,150.8,290.1z
				 M145.1,284.4c0-1-0.1-2-0.1-2.9h6.4c0,1-0.1,1.9-0.1,2.9H145.1z M154.9,307.2h-3.7c0.1-0.9,0.2-1.9,0.3-2.9h4.2
				C155.5,305.3,155.2,306.3,154.9,307.2z M151.8,301.5c0.1-1,0.2-1.9,0.3-2.9h5.2c-0.2,1-0.5,2-0.7,2.9H151.8z M160.8,307.2H157
				c0.3-1,0.6-2,0.8-2.9h4.4C161.8,305.3,161.3,306.3,160.8,307.2z M168.8,304.8c-0.6,0.9-1.1,1.7-1.7,2.5h-4c0.4-0.7,0.7-1.4,1-2.2
				c0.1-0.2,0.2-0.5,0.3-0.7h4.6C169,304.5,168.9,304.6,168.8,304.8z M170.3,306.2c0.4-0.6,0.8-1.2,1.2-1.9h4.7
				c-0.8,1-1.7,2-2.5,2.9h-4.1C169.9,306.9,170.1,306.5,170.3,306.2z"/>
			<path class="st4" d="M142.6,273.4c0.5,1.9,16.7,18,25.1,18.8c8.4,0.7,19-16.7,16.9-18.8C182.2,271,153.8,269.9,142.6,273.4z"/>
		</g>
		<path class="st1" d="M129.9,287l3.8,0.3c0,0,3.2-2.8,4.4-3.1c1.1-0.4,3.5-0.4,4.6-0.2c0.8,0.2,3,1.4,3,1.4s0.4,1.7-3.4,0.6
			c-0.6-0.2-1.3,0.2-1.8,0.4c-0.8,0.3-1.3,0.6-1.3,0.6l7.3,1.9c0,0,5.3,1.8,5,2.9s-1.9,0.3-3.4,0s-3-0.5-3-0.5s7.3,1.8,6.8,3.4
			c-0.3,1.1-2.5,0.1-4.7-0.3c-2.4-0.5-4.8-0.8-4.8-0.8s1.4,0.8,3.2,1.4c2.2,0.7,5.2,1,4.9,2c-0.3,1.2-3.3,0.5-6-0.1
			c-2.2-0.5-4.1-1.4-4.1-1.4l3.8,2.1c0,0,3.1,0.3,2.9,1.3c-0.2,1.2-3.5,0.3-3.5,0.3l-6.5-2.3l-10-3.5L129.9,287z"/>
		<g>
			<path class="st4" d="M104.6,233.6c0,0-24.3,34-21.1,47.8s44.9,13.3,44.9,13.3l4.7-8.8L102.6,271l20.6-24.7L104.6,233.6z"/>
		</g>
	</g>
</g>
<g>
	<g>
		<g>
			<path class="st8" d="M305.3,307.9c0-2.5-2-4.5-4.5-4.5h-99.6c-2.5,0-4.5,2-4.5,4.5v1.5h108.6V307.9z"/>
			<path class="st4" d="M305.3,307.9c0-2.5-2-4.5-4.5-4.5h-99.6c-2.5,0-4.5,2-4.5,4.5v1.5h108.6V307.9z"/>
			<path class="st9" d="M201.2,455.4h99.6c2.5,0,4.5-2,4.5-4.5v-14.4H196.7v14.4C196.7,453.4,198.7,455.4,201.2,455.4z"/>
		</g>
		<g>
			<rect x="196.7" y="335.6" class="st4" width="108.6" height="100.9"/>
			<rect x="196.7" y="309.3" class="st9" width="108.6" height="26.3"/>
		</g>
		<path class="st10" d="M260.8,379.2c0,0.1-0.1,0.2-0.2,0.2l0,0c-0.1,0-0.2-0.1-0.2-0.2v-0.3c0-0.1,0.1-0.2,0.2-0.2l0,0
			c0.1,0,0.2,0.1,0.2,0.2V379.2z"/>
		<g>
			<circle class="st9" cx="251.6" cy="387.3" r="41.1"/>
			<circle class="st11" cx="251.6" cy="387.3" r="38.9"/>
		</g>
		
			<ellipse transform="matrix(0.1602 -0.9871 0.9871 0.1602 -104.2295 516.2928)" class="st11" cx="251.3" cy="319.4" rx="7.5" ry="7.5"/>
		
			<ellipse transform="matrix(0.1602 -0.9871 0.9871 0.1602 -104.2295 516.2928)" class="st4" cx="251.3" cy="319.4" rx="5.5" ry="5.5"/>
		<g class="st12">
			<path class="st10" d="M297.4,323.3c0,0.7-0.6,1.3-1.3,1.3h-23.4c-0.7,0-1.3-0.6-1.3-1.3v-8.4c0-0.7,0.6-1.3,1.3-1.3h23.4
				c0.7,0,1.3,0.6,1.3,1.3V323.3z"/>
			<path class="st10" d="M296.1,326.1h-23.4c-1.5,0-2.8-1.3-2.8-2.8v-8.4c0-1.5,1.3-2.8,2.8-2.8h23.4c1.5,0,2.8,1.3,2.8,2.8v8.4
				C298.9,324.8,297.7,326.1,296.1,326.1z M273,323.1h22.9v-8H273V323.1z"/>
		</g>
		<path class="st2" d="M297.4,323.3c0,0.7-0.6,1.3-1.3,1.3h-23.4c-0.7,0-1.3-0.6-1.3-1.3v-8.4c0-0.7,0.6-1.3,1.3-1.3h23.4
			c0.7,0,1.3,0.6,1.3,1.3V323.3z"/>
		<path class="st11" d="M227.4,326.5c0,1.4-1.2,2.6-2.6,2.6h-20.4c-1.4,0-2.6-1.2-2.6-2.6l0,0c0-1.4,1.2-2.6,2.6-2.6h20.4
			C226.3,323.9,227.4,325.1,227.4,326.5L227.4,326.5z"/>
		<rect x="275" y="316.5" class="st13" width="18.8" height="1.3"/>
		<rect x="275" y="319.5" class="st13" width="18.8" height="1.3"/>
		<path class="st2" d="M256.4,319.4c0,0.3-0.2,0.5-0.5,0.5h-2.3c-0.3,0-0.5-0.2-0.5-0.5l0,0c0-0.3,0.2-0.5,0.5-0.5h2.3
			C256.2,318.9,256.4,319.1,256.4,319.4L256.4,319.4z"/>
		<g>
			<path class="st2" d="M251.6,360.6c-14.8,0-26.8,12-26.8,26.8s12,26.8,26.8,26.8c7.7,0,14.6-3.2,19.4-8.4V369
				C266.2,363.8,259.3,360.6,251.6,360.6z"/>
			<path class="st4" d="M271.1,368.9l-2.5,17.1l2.5,19.7c4.5-4.8,7.3-11.3,7.3-18.4S275.6,373.7,271.1,368.9z"/>
		</g>
		<rect x="233.9" y="309.3" class="st4" width="1" height="26.3"/>
		<path class="st9" d="M271.1,405.7c-2.8,0-5-2.3-5-5V374c0-2.8,2.3-5,5-5V405.7z"/>
		<g class="st14">
			<path class="st4" d="M236.7,383.8c0.8-5.2,3.8-9.6,7.9-12.3l-1.1-2.8c-6.1,2.1-10.9,7.5-12,14.3c-1.2,7.4,2.3,14.5,8.3,18.3
				l2.2-1.4C238,395.8,235.7,389.9,236.7,383.8z"/>
		</g>
	</g>
	<g>
		<path class="st5" d="M283.5,299.8c0,2-1.6,3.7-3.7,3.7H240c-2,0-3.7-1.6-3.7-3.7l0,0c0-2,1.6-3.7,3.7-3.7h39.8
			C281.9,296.1,283.5,297.8,283.5,299.8L283.5,299.8z"/>
		<path class="st15" d="M283.5,299.8h-36.9c-0.6,2-2.3,3.4-4.4,3.7h37.7C281.9,303.4,283.5,301.8,283.5,299.8z"/>
		<path class="st2" d="M283.5,292.5c0,2-1.6,3.7-3.7,3.7H240c-2,0-3.7-1.6-3.7-3.7l0,0c0-2,1.6-3.7,3.7-3.7h39.8
			C281.9,288.8,283.5,290.4,283.5,292.5L283.5,292.5z"/>
		<path class="st4" d="M283.5,285.1c0,2-1.6,3.7-3.7,3.7H240c-2,0-3.7-1.6-3.7-3.7l0,0c0-2,1.6-3.7,3.7-3.7h39.8
			C281.9,281.5,283.5,283.1,283.5,285.1L283.5,285.1z"/>
		<g>
			<path class="st16" d="M241.6,255.9h-6.9l0,0h-4.1c-6.7,0-12.1,5.4-12.1,12.1v9v21.3c0,2.9,2.3,5.2,5.2,5.2h6.9h4.1h6.9
				c2.9,0,5.2-2.3,5.2-5.2v-15.8v-21.3C246.8,258.3,244.5,255.9,241.6,255.9z M229.1,268c-1.6,3.5-4.5,5.6-6.4,4.7s-2.1-4.4-0.4-7.9
				c1.6-3.5,4.5-5.6,6.4-4.7C230.5,261,230.7,264.6,229.1,268z"/>
			<path class="st15" d="M246.6,299.8h-27.8c0.6,2,2.3,3.4,4.4,3.7h19C244.3,303.2,246,301.7,246.6,299.8z"/>
			<path class="st5" d="M240.9,252.5c0,0.7-0.5,1.2-1.2,1.2H233c-0.7,0-1.2-0.5-1.2-1.2v-8.4c0-0.7,0.5-1.2,1.2-1.2h6.7
				c0.7,0,1.2,0.5,1.2,1.2V252.5z"/>
			<rect x="230.4" y="251.3" class="st4" width="11.9" height="4.6"/>
		</g>
	</g>
</g>
</svg>
