<?xml version="1.0" encoding="utf-8"?>
<!-- Generator: Adobe Illustrator 24.0.0, SVG Export Plug-In . SVG Version: 6.00 Build 0)  -->
<svg version="1.1" id="Layer_1" xmlns="http://www.w3.org/2000/svg" xmlns:xlink="http://www.w3.org/1999/xlink" x="0px" y="0px"
	 viewBox="0 0 385 515" style="enable-background:new 0 0 385 515;" xml:space="preserve">
<style type="text/css">
	.st0{fill:#F79800;}
	.st1{fill:#EDD600;}
	.st2{fill:#EF5C00;}
	.st3{fill:#FCF0E3;}
	.st4{fill:#F7E2B9;}
	.st5{fill:#F3D079;}
	.st6{fill:#DCB762;}
	.st7{fill:#F9E6C5;}
	.st8{fill:#C7AC81;}
	.st9{fill:#B79D77;}
	.st10{fill:#A58D6D;}
	.st11{fill:#FFFFFF;}
	.st12{fill:#DDC305;}
	.st13{fill:#CCB009;}
	.st14{fill:#4A990D;}
	.st15{fill:#43840B;}
	.st16{fill:#F4F4F4;}
	.st17{fill:#3A6D09;}
	.st18{fill:#A765D6;}
	.st19{fill:#151C28;}
	.st20{fill:#E2857E;}
	.st21{fill:#EBECED;}
	.st22{fill:#DD5103;}
	.st23{fill:#4E5EAF;}
	.st24{fill:#3F548E;}
</style>
<path class="st0" d="M327,445.4c0.1,4-6.5,8.2-79.5,10s-183.2-2.8-183.3-6.8c-0.1-4,84.5-6.6,157.5-8.5
	C294.7,438.4,326.9,441.5,327,445.4z"/>
<g>
	<g>
		<path class="st1" d="M301.6,311.9c0,4-3.2,7.2-7.2,7.2l0,0c-4,0-7.2-3.2-7.2-7.2v-0.6c0-4,3.2-7.2,7.2-7.2l0,0
			c4,0,7.2,3.2,7.2,7.2V311.9z"/>
		<g>
			<g>
				<path class="st2" d="M287.7,307.2l-1.7,0.1c-5.6,0.2-10.2,3.9-11.8,8.9c-0.2,0.5,0.1,1.2,1.1,1.5c2.9,0.9,7.7,1.3,12,1.1
					c6.4-0.3,9.9-1.2,12-2.1c1.3-0.6,1.1-1.1,0.9-1.6C298.1,310.3,293.3,307,287.7,307.2z"/>
			</g>
			<g>
				<path class="st3" d="M280.4,311.8c0.2,0.2,0.5,0.8,0.3,1s-0.8-0.1-1-0.3c-0.2-0.2-0.2-0.5,0-0.7
					C279.9,311.7,280.2,311.7,280.4,311.8z"/>
				<path class="st3" d="M282.9,313.6c-0.2,0.1-0.9,0.3-1,0c-0.1-0.2,0.3-0.8,0.5-0.9s0.5,0,0.6,0.2
					C283.2,313.2,283.2,313.5,282.9,313.6z"/>
			</g>
		</g>
		<g>
			
				<ellipse transform="matrix(0.984 -0.1779 0.1779 0.984 -53.0806 53.6272)" class="st4" cx="272.5" cy="322.8" rx="13" ry="21.6"/>
			
				<ellipse transform="matrix(0.984 -0.1779 0.1779 0.984 -52.9214 53.5926)" class="st5" cx="272.4" cy="321.9" rx="10.5" ry="17.6"/>
			<path class="st6" d="M276,310c0,0-2.2,2.1-5.3,2.6c-3.1,0.6-5.9-0.6-5.9-0.6s2.2-2.1,5.3-2.6C273.2,308.9,276,310,276,310z"/>
		</g>
		<g>
			
				<ellipse transform="matrix(0.3355 -0.942 0.942 0.3355 -92.9624 494.7721)" class="st7" cx="304.2" cy="313.3" rx="35.4" ry="6.8"/>
			<path class="st5" d="M298.6,311.3c-5.8,16.2-7.9,30.2-4.8,31.3c3.1,1.1,10.2-11.1,16-27.3c5.8-16.2,8.4-31.6,5.3-32.7
				C312,281.5,304.4,295.1,298.6,311.3z"/>
			<path class="st6" d="M307.9,291.3c0,0,1.2,1.7,3.2,2.4c2,0.7,4.1,0.2,4.1,0.2s-1.2-1.7-3.2-2.4
				C309.9,290.7,307.9,291.3,307.9,291.3z"/>
			<path class="st6" d="M305.2,297.1c0,0,1.4,2,3.8,2.9c2.4,0.8,4.7,0.2,4.7,0.2s-1.4-2-3.8-2.9
				C307.6,296.4,305.2,297.1,305.2,297.1z"/>
			<path class="st6" d="M302.7,303.4c0,0,1.4,2,3.8,2.9c2.4,0.8,4.7,0.2,4.7,0.2s-1.4-2-3.8-2.9
				C305.1,302.8,302.7,303.4,302.7,303.4z"/>
			<path class="st6" d="M299.9,309.6c0,0,1.6,2.3,4.3,3.2c2.7,0.9,5.4,0.2,5.4,0.2s-1.6-2.3-4.3-3.2S299.9,309.6,299.9,309.6z"/>
		</g>
		<g>
			<polygon class="st8" points="313.5,315.9 311.6,314.1 311.6,314.1 309.8,315.9 307.9,314.1 307.9,314.1 306,315.9 304.2,314.1 
				304.2,314.1 302.3,315.9 300.4,314 300.4,314 298.6,315.9 296.7,314 296.7,314 294.8,315.9 293,314.1 293,314 293,314 293,314 
				293,314 293,314 293,314.1 291.1,315.9 289.3,314 289.3,314 287.4,315.9 285.5,314 285.5,314 283.7,315.9 281.8,314.1 
				281.8,314.1 279.9,315.9 278.1,314.1 278.1,314.1 276.2,315.9 274.3,314.1 274.3,314.1 272.5,315.9 272.6,381 293,381 313.3,381 
							"/>
			<g>
				<polygon class="st9" points="259.4,312.6 260.9,314.6 262.4,313 263.8,315 265.3,313.3 266.7,315.3 268.2,313.6 269.7,315.6 
					271.1,313.9 272.6,315.9 272.6,381 258.1,377.2 258,314.3 				"/>
			</g>
		</g>
	</g>
	<g>
		<polygon class="st10" points="235.1,376.7 223,381 223.7,320.6 240.4,318.3 		"/>
		<polygon class="st11" points="270.2,330.2 256.6,330.2 256.6,316.1 271,319.6 		"/>
		<g>
			<path class="st12" d="M252.2,305.1c-2.6,1.8-6.3,14.9,1.2,25.2c7.5,10.3,19.7,13,25.8,10.4c1.2-0.5,1.1-3-0.1-3.9
				c-2.2-1.7-12.9-7.6-16.6-12.5c-4.3-5.6-3.7-16.9-5.3-18.2c-1.6-1.3-0.6-3.2-1.3-4c-0.4-0.4-2-0.5-2.4,0
				C253.1,302.8,254,303.8,252.2,305.1z"/>
			<path class="st13" d="M252.2,305.1c-2.6,1.8-6.3,14.9,1.2,25.2c7.5,10.3,19.7,13,25.8,10.4c0.7-0.3,0.8-1.2,0.9-1.7
				c-35.3-5.6-24.8-37.3-25.2-37.3c-0.5,0-1.1,0.1-1.3,0.3C253.1,302.8,254,303.8,252.2,305.1z"/>
		</g>
		<g id="Bag_2_">
			<g>
				
					<ellipse transform="matrix(0.9579 -0.2872 0.2872 0.9579 -81.433 84.6747)" class="st2" cx="247.9" cy="319.9" rx="7" ry="6.9"/>
			</g>
			<g>
				<polygon class="st14" points="242.5,321.5 237.6,285.3 240.1,321.5 				"/>
				<polygon class="st15" points="239.8,321.4 237.2,302 235.8,302.1 236.9,321.6 				"/>
				<polygon class="st14" points="228.9,315.9 237.2,302 235.8,302.1 				"/>
				<polygon class="st14" points="241.4,320.9 244.4,321 241,290.1 				"/>
			</g>
		</g>
		<g id="Milk">
			<g>
				<polygon class="st16" points="263.9,322.7 252.8,322.5 252.7,340.9 263.6,341.2 				"/>
			</g>
		</g>
		<g>
			<path class="st15" d="M276.5,327.8c-5.3,17.1-9.3,23.1-12.1,22.2c-2.8-0.9-2.7-8.1,2.5-25.2c5.3-17.1,9.6-23.8,12.3-22.9
				C282,302.8,281.8,310.7,276.5,327.8z"/>
			<path class="st14" d="M271.1,312.8c3.4-8.2,6.1-11.5,8.1-10.9c1.9,0.6,2.4,4.6,0.7,12.8c-0.1,0.5,0.4-4.6-0.1-4.3
				c-0.2,0.1-1.2,5.8-1.5,5.9c-0.7,0.2,0.6-7.3-0.2-7.4c-0.8-0.1-2.2,5.3-2.9,5c-0.7-0.2,0.8-5.8,0.3-6.2
				C274.8,307.1,270.8,313.6,271.1,312.8z"/>
			<g>
				<g>
					<path class="st17" d="M271.2,328.2c0.1-0.4,0.5-0.6,0.9-0.5s0.6,0.5,0.5,0.9s-0.5,0.6-0.9,0.5
						C271.4,329,271.2,328.6,271.2,328.2z"/>
					<path class="st17" d="M272,325c0.1-0.4,0.5-0.6,0.9-0.5s0.6,0.5,0.5,0.9s-0.5,0.6-0.9,0.5C272.2,325.8,271.9,325.4,272,325z"/>
					<path class="st17" d="M272.8,321.8c0.1-0.4,0.5-0.6,0.9-0.5s0.6,0.5,0.5,0.9s-0.5,0.6-0.9,0.5
						C273,322.6,272.7,322.2,272.8,321.8z"/>
					<path class="st17" d="M273.6,318.6c0.1-0.4,0.5-0.6,0.9-0.5s0.6,0.5,0.5,0.9s-0.5,0.6-0.9,0.5
						C273.8,319.4,273.5,319,273.6,318.6z"/>
					<path class="st17" d="M270.2,322.8c0.1-0.4,0.5-0.6,0.9-0.5s0.6,0.5,0.5,0.9s-0.5,0.6-0.9,0.5
						C270.3,323.6,270.1,323.2,270.2,322.8z"/>
					<path class="st17" d="M271,319.6c0.1-0.4,0.5-0.6,0.9-0.5s0.6,0.5,0.5,0.9s-0.5,0.6-0.9,0.5S270.9,320,271,319.6z"/>
					<path class="st17" d="M273.9,327.2c0.1-0.4,0.5-0.6,0.9-0.5s0.6,0.5,0.5,0.9s-0.5,0.6-0.9,0.5S273.8,327.6,273.9,327.2z"/>
					<path class="st17" d="M275.5,320.8c0.1-0.4,0.5-0.6,0.9-0.5s0.6,0.5,0.5,0.9s-0.5,0.6-0.9,0.5
						C275.6,321.6,275.4,321.2,275.5,320.8z"/>
					<path class="st17" d="M276.6,318c0.1-0.4,0.5-0.6,0.9-0.5s0.6,0.5,0.5,0.9s-0.5,0.6-0.9,0.5C276.8,318.8,276.5,318.4,276.6,318
						z"/>
					<path class="st17" d="M274.8,315.8c0.1-0.4,0.5-0.6,0.9-0.5s0.6,0.5,0.5,0.9s-0.5,0.6-0.9,0.5
						C274.9,316.6,274.7,316.2,274.8,315.8z"/>
					<path class="st17" d="M273.2,330.3c0.1-0.4,0.5-0.6,0.9-0.5s0.6,0.5,0.5,0.9s-0.5,0.6-0.9,0.5
						C273.4,331,273.1,330.7,273.2,330.3z"/>
				</g>
			</g>
		</g>
		<g>
			<path class="st18" d="M232.2,325.2c2.8,4.1,1.9,10,0.9,14.4c-0.9,4.4-2.6,8.8,1.1,8.6C240.7,347.9,239.7,331.5,232.2,325.2z"/>
		</g>
		<path class="st8" d="M223.7,320.6l-2.4,60.3l46.4,0.6l0.7-60.3L223.7,320.6z"/>
		<polygon class="st9" points="281.4,381.5 267.6,381.6 268.4,321.3 280.5,321.7 		"/>
	</g>
	<g>
		<g>
			<circle class="st2" cx="295" cy="439" r="9.1"/>
			<path class="st19" d="M283.7,439c0-6.2,5.1-11.3,11.3-11.3c6.2,0,11.3,5.1,11.3,11.3c0,6.2-5.1,11.3-11.3,11.3
				C288.8,450.3,283.7,445.2,283.7,439z M288.1,439c0,3.8,3.1,6.9,6.9,6.9s6.9-3.1,6.9-6.9s-3.1-6.9-6.9-6.9S288.1,435.2,288.1,439z
				"/>
		</g>
		<path class="st11" d="M290.8,437.5c0,2.3,1.9,4.2,4.2,4.2c2.3,0,4-2,4.9-4.1c1.1-2.7,6.6-14.4,6.6-14.4h-13.7
			C292.8,423.2,290.8,435.2,290.8,437.5z"/>
		<g>
			<circle class="st2" cx="223.5" cy="439" r="9.1"/>
			<path class="st19" d="M212.2,439c0-6.2,5.1-11.3,11.3-11.3s11.3,5.1,11.3,11.3c0,6.2-5.1,11.3-11.3,11.3
				C217.2,450.3,212.2,445.2,212.2,439z M216.6,439c0,3.8,3.1,6.9,6.9,6.9c3.8,0,6.9-3.1,6.9-6.9s-3.1-6.9-6.9-6.9
				C219.7,432.1,216.6,435.2,216.6,439z"/>
		</g>
		<path class="st11" d="M219.2,437.5c0,2.3,1.9,4.2,4.2,4.2s4-2,4.9-4.1c1.1-2.7,6.7-14.4,6.7-14.4h-13.8
			C221.2,423.2,219.2,435.2,219.2,437.5z"/>
		<g>
			<polygon class="st19" points="308.7,423.8 214.5,423.8 217.3,382.3 209.7,302.4 195.4,298.8 196,296.6 211.9,300.6 219.6,382.3 
				219.6,382.4 217,419.8 308.7,419.8 			"/>
			<polygon class="st19" points="314.9,382.8 218.5,382.8 218.5,380.5 313,380.5 323.3,339.5 211.7,318.4 212.2,316.1 326.1,337.7 
							"/>
			
				<rect x="266.6" y="291.7" transform="matrix(0.1337 -0.991 0.991 0.1337 -110.5248 564.7126)" class="st19" width="2.3" height="107.8"/>
			
				<rect x="265.8" y="314.8" transform="matrix(7.092002e-02 -0.9975 0.9975 7.092002e-02 -116.4203 605.6646)" class="st19" width="2.3" height="101.1"/>
			
				<rect x="226.2" y="319.9" transform="matrix(0.9988 -4.887531e-02 4.887531e-02 0.9988 -16.8736 11.5311)" class="st19" width="2.3" height="61.8"/>
			
				<rect x="237.7" y="322.2" transform="matrix(0.9997 -2.480600e-02 2.480600e-02 0.9997 -8.6471 6.0331)" class="st19" width="2.3" height="58.7"/>
			
				<rect x="221.8" y="352.2" transform="matrix(2.512643e-02 -0.9997 0.9997 2.512643e-02 -108.6867 595.1572)" class="st19" width="58.1" height="2.3"/>
			
				<rect x="234.3" y="353.5" transform="matrix(5.941126e-02 -0.9982 0.9982 5.941126e-02 -107.625 595.1199)" class="st19" width="55.3" height="2.3"/>
			
				<rect x="248.2" y="353.9" transform="matrix(7.868496e-02 -0.9969 0.9969 7.868496e-02 -101.3195 600.3912)" class="st19" width="51.9" height="2.3"/>
			
				<rect x="260.4" y="355.6" transform="matrix(0.1077 -0.9942 0.9942 0.1077 -99.9898 602.1192)" class="st19" width="50" height="2.3"/>
			
				<rect x="272.4" y="356.4" transform="matrix(0.1551 -0.9879 0.9879 0.1551 -103.1925 594.5085)" class="st19" width="47.2" height="2.3"/>
			
				<rect x="285" y="357.8" transform="matrix(0.1858 -0.9826 0.9826 0.1858 -101.9002 594.9007)" class="st19" width="46" height="2.3"/>
		</g>
		<path class="st2" d="M175.3,293.7c-0.3,1.7,0.7,3.3,2.4,3.7l27,5.6c1.7,0.3,3.3-0.7,3.7-2.4l0,0c0.3-1.7-0.7-3.3-2.4-3.7l-27-5.6
			C177.3,290.9,175.7,292,175.3,293.7L175.3,293.7z"/>
	</g>
</g>
<g id="_x30_3_Standing">
	<g id="head_10_">
		<path class="st20" d="M130.9,171.3c6.1,0,13.4,6.2,13,13.2c-0.4,7.1-2.1,19.1-6.8,19.6c-2.1,0.2-9.1-2.3-9.1-2.3l-0.5,8.4
			l-13.3-3.3l5.1-11C119.3,195.9,110.7,171.3,130.9,171.3z"/>
		<path class="st11" d="M134.3,181.2c-2.8,4.3-2.9,11.5-4.5,4.8c-0.8-3.3-3.3-3.1-5.2-1.1c-2.2,2.5,0.6,5.8,0,6.7s-4.5,4.4-5.3,4.3
			c-0.8-0.1-5.1-14,0.1-21.3c5.8-8,21-4.7,22.5,3.3C140.7,177.5,137,177,134.3,181.2z"/>
	</g>
	<g id="leg_20_">
		<polygon class="st11" points="109.4,450 78.6,441.6 81.8,433.6 95.8,434.5 110.7,446.6 		"/>
		<polygon class="st20" points="83.5,433.7 93.7,434.3 95.7,427.2 85.5,425 		"/>
		<path class="st21" d="M135.7,308.9c0,0-15.4,58.7-19.4,67.6c-2.7,6-11.7,35.9-16.4,53.4l-16.7-5c0.3-11.4,0.6-21.1,3.8-31.9
			c6.8-22.7,11.9-34.8,12.9-53.1c1-18.3-6.2-37.5-2.9-47.8C100.3,281.7,135.7,308.9,135.7,308.9z"/>
	</g>
	<g id="leg_21_">
		<path class="st11" d="M98.2,291.1c0,0,14.9,66.1,15.5,71.7c0.6,5.6-3.1,16.5,0,35.9c1.6,9.7,3.8,26,5.6,33.9l15.1,0.5
			c0.5-16.9,1.3-52.6,1.4-59.5c0.2-9.8,7.5-68.4,7.5-68.4S103.8,277.5,98.2,291.1z"/>
		<polygon class="st11" points="151,448.7 119.2,449.7 119.9,441 133.5,437.8 151.3,445.1 		"/>
		<polygon class="st20" points="121.5,440.6 131.5,438.3 131.4,432.8 120.9,432.5 		"/>
	</g>
	<g id="hand_10_">
		<polygon class="st20" points="168.6,259.7 175.9,257.3 178,261.9 172.3,265.8 		"/>
		<path class="st20" d="M181,253.3c-5,1.2-8.4,4.7-7.6,7.8c0.2,0.9,0.8,1.7,1.6,2.3c0.8,0.6,4.6-0.8,6.2-1.6
			c0.8-0.4,1.8-0.7,2.8-0.9c2.2-0.4,4.3-0.3,5.7,0.4c1.4-1.4,2-3.1,1.7-4.6C190.6,253.6,185.9,252.1,181,253.3z"/>
		<polygon class="st22" points="173.1,267.1 171.2,256.4 129.5,258.2 142.9,274.3 		"/>
		<g>
			<polygon class="st23" points="198.3,232.6 192,230.2 178,265.6 186.2,268.8 196.8,279.5 210.8,244.1 			"/>
			<g>
				<polygon class="st24" points="190.6,277 178,265.6 192,230.2 204.5,241.6 				"/>
				
					<rect x="181.6" y="257.2" transform="matrix(0.366 -0.9306 0.9306 0.366 -115.2622 351.9826)" class="st23" width="38.1" height="6.8"/>
			</g>
		</g>
		<path class="st20" d="M180,257.2c-0.4,0-0.8-0.2-0.9-0.6c-0.2-0.5,0.1-1.1,0.6-1.3c0.3-0.1,2.9-1.1,3.9-1.4c0.7-0.2,2.8-0.2,3-0.3
			c0.5-0.1,0.9,0.3,0.9,0.7c0.1,0.5-0.3,0.9-0.7,0.9c-0.6,0.1-2.2,0.4-2.7,0.6c-0.7,0.2-2.9,1-3.7,1.3
			C180.2,257.2,180.1,257.2,180,257.2z"/>
	</g>
	<path class="st2" d="M116.8,205.8c-6.1,0.4-11.7,6.7-15.6,18.2c-3,20.7-8.8,93.2-8.8,93.2h55c0,0-7.5-98.6-18.3-107
		C124.8,206.6,121.9,205.5,116.8,205.8z"/>
	<g id="hand_9_">
		<path class="st20" d="M166.9,286.1c0,0,4.8,0.5,5.2,0.6s10.5,0.2,11.1,0.3c0.5,0.1,5.7,2.3,6.1,2.6c0.3,0.4,3.6,5.8,3.6,5.8
			s-0.2,1.1-1.2,0.7c-1.1-0.5-0.8,0.2-1.3,0.3c-0.5,0-4.2-3.1-4.2-3.1l-2.9-1.1l-0.9,0.5l5.3,4.1c0,0,0.2,0.8-0.6,0.8
			c-0.7,0-6.4-3.4-6.4-3.4s-4.5-0.4-5.6-0.5c-1-0.1-3.6-1.3-3.6-1.3L166,293L166.9,286.1z"/>
		<path class="st2" d="M128.2,276.3l42.3,7.3l0.7,11.6c0,0-27.5-1.9-41.9-1.9C114.9,293.3,88.9,269.1,128.2,276.3z"/>
	</g>
</g>
</svg>
